<?xml version="1.0" encoding="utf-8"?>
<!-- Generator: Adobe Illustrator 18.1.1, SVG Export Plug-In . SVG Version: 6.00 Build 0)  -->
<svg version="1.1" id="Calque_1" xmlns="http://www.w3.org/2000/svg" xmlns:xlink="http://www.w3.org/1999/xlink" x="0px" y="0px"
	 viewBox="0 0 595.3 841.9" enable-background="new 0 0 595.3 841.9" xml:space="preserve">
<rect x="4.6" y="123.3" fill="#FFFFFF" stroke="#000000" stroke-width="4.9444" stroke-miterlimit="10" width="294.3" height="294.3"/>
<rect x="298.9" y="123.3" fill="#FFFFFF" stroke="#000000" stroke-width="4.9444" stroke-miterlimit="10" width="294.3" height="294.3"/>
<rect x="4.6" y="417.6" fill="#FFFFFF" stroke="#000000" stroke-width="4.9444" stroke-miterlimit="10" width="294.3" height="294.3"/>
<rect x="298.9" y="417.6" fill="#FFFFFF" stroke="#000000" stroke-width="4.9444" stroke-miterlimit="10" width="294.3" height="294.3"/>
<g>
	<polyline fill="none" stroke="#000000" stroke-width="0.9889" stroke-miterlimit="10" points="90.9,263.4 90.9,254.8 131.7,254.8 
		131.7,263.4 	"/>
	<line fill="none" stroke="#000000" stroke-width="0.9889" stroke-miterlimit="10" x1="105.9" y1="259.1" x2="120.9" y2="259.1"/>
	<line fill="none" stroke="#000000" stroke-width="0.9889" stroke-miterlimit="10" x1="115.8" y1="256.9" x2="115.8" y2="261.5"/>
	<polyline fill="none" stroke="#000000" stroke-width="0.9889" stroke-miterlimit="10" points="142.1,263.4 142.1,254.8 183,254.8 
		183,263.4 	"/>
	<line fill="none" stroke="#000000" stroke-width="0.9889" stroke-miterlimit="10" x1="157.2" y1="259.1" x2="172.2" y2="259.1"/>
	<line fill="none" stroke="#000000" stroke-width="0.9889" stroke-miterlimit="10" x1="167.1" y1="256.9" x2="167.1" y2="261.5"/>
	<polyline fill="none" stroke="#000000" stroke-width="0.9889" stroke-miterlimit="10" points="90.9,282.3 90.9,273.8 131.7,273.8 
		131.7,282.3 	"/>
	<line fill="none" stroke="#000000" stroke-width="0.9889" stroke-miterlimit="10" x1="105.9" y1="278.1" x2="120.9" y2="278.1"/>
	<line fill="none" stroke="#000000" stroke-width="0.9889" stroke-miterlimit="10" x1="115.8" y1="275.9" x2="115.8" y2="280.5"/>
	<polyline fill="none" stroke="#000000" stroke-width="0.9889" stroke-miterlimit="10" points="142.1,282.3 142.1,273.8 183,273.8 
		183,282.3 	"/>
	<line fill="none" stroke="#000000" stroke-width="0.9889" stroke-miterlimit="10" x1="157.2" y1="278.1" x2="172.2" y2="278.1"/>
	<line fill="none" stroke="#000000" stroke-width="0.9889" stroke-miterlimit="10" x1="167.1" y1="275.9" x2="167.1" y2="280.5"/>
	<polyline fill="none" stroke="#000000" stroke-width="0.9889" stroke-miterlimit="10" points="90.9,317.9 90.9,309.3 131.7,309.3 
		131.7,317.9 	"/>
	<line fill="none" stroke="#000000" stroke-width="0.9889" stroke-miterlimit="10" x1="105.9" y1="313.6" x2="120.9" y2="313.6"/>
	<line fill="none" stroke="#000000" stroke-width="0.9889" stroke-miterlimit="10" x1="115.8" y1="311.5" x2="115.8" y2="316"/>
	<polyline fill="none" stroke="#000000" stroke-width="0.9889" stroke-miterlimit="10" points="142.1,317.9 142.1,309.3 183,309.3 
		183,317.9 	"/>
	<line fill="none" stroke="#000000" stroke-width="0.9889" stroke-miterlimit="10" x1="157.2" y1="313.6" x2="172.2" y2="313.6"/>
	<line fill="none" stroke="#000000" stroke-width="0.9889" stroke-miterlimit="10" x1="167.1" y1="311.5" x2="167.1" y2="316"/>
	<polyline fill="none" stroke="#000000" stroke-width="0.9889" stroke-miterlimit="10" points="90.9,336.1 90.9,327.6 131.7,327.6 
		131.7,336.1 	"/>
	<line fill="none" stroke="#000000" stroke-width="0.9889" stroke-miterlimit="10" x1="105.9" y1="331.9" x2="120.9" y2="331.9"/>
	<line fill="none" stroke="#000000" stroke-width="0.9889" stroke-miterlimit="10" x1="115.8" y1="329.8" x2="115.8" y2="334.3"/>
	<polyline fill="none" stroke="#000000" stroke-width="0.9889" stroke-miterlimit="10" points="142.1,336.1 142.1,327.6 183,327.6 
		183,336.1 	"/>
	<line fill="none" stroke="#000000" stroke-width="0.9889" stroke-miterlimit="10" x1="157.2" y1="331.9" x2="172.2" y2="331.9"/>
	<line fill="none" stroke="#000000" stroke-width="0.9889" stroke-miterlimit="10" x1="167.1" y1="329.8" x2="167.1" y2="334.3"/>
	<polyline fill="none" stroke="#000000" stroke-width="0.9889" stroke-miterlimit="10" points="232.8,262.5 232.8,253.9 
		273.8,253.9 273.8,262.5 	"/>
	<line fill="none" stroke="#000000" stroke-width="0.9889" stroke-miterlimit="10" x1="248" y1="258.2" x2="262.9" y2="258.2"/>
	<line fill="none" stroke="#000000" stroke-width="0.9889" stroke-miterlimit="10" x1="257.9" y1="256.1" x2="257.9" y2="260.6"/>
	<polyline fill="none" stroke="#000000" stroke-width="0.9889" stroke-miterlimit="10" points="232.8,281.5 232.8,272.9 
		273.8,272.9 273.8,281.5 	"/>
	<line fill="none" stroke="#000000" stroke-width="0.9889" stroke-miterlimit="10" x1="248" y1="277.2" x2="262.9" y2="277.2"/>
	<line fill="none" stroke="#000000" stroke-width="0.9889" stroke-miterlimit="10" x1="257.9" y1="275.1" x2="257.9" y2="279.6"/>
	<polyline fill="none" stroke="#000000" stroke-width="0.9889" stroke-miterlimit="10" points="232.8,317 232.8,308.4 273.8,308.4 
		273.8,317 	"/>
	<line fill="none" stroke="#000000" stroke-width="0.9889" stroke-miterlimit="10" x1="248" y1="312.8" x2="262.9" y2="312.8"/>
	<line fill="none" stroke="#000000" stroke-width="0.9889" stroke-miterlimit="10" x1="257.9" y1="310.5" x2="257.9" y2="315.1"/>
	<polyline fill="none" stroke="#000000" stroke-width="0.9889" stroke-miterlimit="10" points="232.8,335.3 232.8,326.8 
		273.8,326.8 273.8,335.3 	"/>
	<line fill="none" stroke="#000000" stroke-width="0.9889" stroke-miterlimit="10" x1="248" y1="331" x2="262.9" y2="331"/>
	<line fill="none" stroke="#000000" stroke-width="0.9889" stroke-miterlimit="10" x1="257.9" y1="328.9" x2="257.9" y2="333.4"/>
	<line fill="none" stroke="#000000" stroke-width="0.9889" stroke-miterlimit="10" x1="47.6" y1="227" x2="47.6" y2="274.8"/>
	<line fill="none" stroke="#000000" stroke-width="0.9889" stroke-miterlimit="10" x1="41.7" y1="275.6" x2="41.7" y2="230.7"/>
	<line fill="none" stroke="#000000" stroke-width="0.9889" stroke-miterlimit="10" x1="35.3" y1="277.1" x2="35.3" y2="236.8"/>
	<line fill="none" stroke="#000000" stroke-width="0.9889" stroke-miterlimit="10" x1="47.9" y1="270.6" x2="31.7" y2="273.6"/>
	<line fill="none" stroke="#000000" stroke-width="0.9889" stroke-miterlimit="10" x1="47.9" y1="257.6" x2="31.2" y2="260.5"/>
	<path fill="none" stroke="#000000" stroke-width="0.9889" stroke-miterlimit="10" d="M32.5,247c3.9-7.2,7.2-12.6,15.3-16.4"/>
	<path fill="none" stroke="#000000" stroke-width="0.9889" stroke-miterlimit="10" d="M71.2,246.4l1.2,2.7h-1.2c0,0,0.3,3.8-1.6,3.8
		"/>
	<circle cx="69.3" cy="246.7" r="0.4"/>
	<path fill="none" stroke="#000000" stroke-width="0.9889" stroke-miterlimit="10" d="M63.8,251.5l1.2,2.7h-1.2c0,0,0.3,3.8-1.6,3.8
		"/>
	<circle cx="61.9" cy="251.8" r="0.4"/>
	<line fill="none" stroke="#000000" stroke-width="0.9889" stroke-miterlimit="10" x1="67.2" y1="243.1" x2="68.1" y2="244.9"/>
	<line fill="none" stroke="#000000" stroke-width="0.9889" stroke-miterlimit="10" x1="66.1" y1="243.8" x2="67.1" y2="245.6"/>
	<line fill="none" stroke="#000000" stroke-width="0.9889" stroke-miterlimit="10" x1="65" y1="244.4" x2="66" y2="246.2"/>
	<line fill="none" stroke="#000000" stroke-width="0.9889" stroke-miterlimit="10" x1="54.2" y1="278.4" x2="53.8" y2="280.4"/>
	<line fill="none" stroke="#000000" stroke-width="0.9889" stroke-miterlimit="10" x1="53" y1="278.2" x2="52.6" y2="280.2"/>
	<line fill="none" stroke="#000000" stroke-width="0.9889" stroke-miterlimit="10" x1="51.7" y1="277.9" x2="51.4" y2="279.9"/>
	<line fill="none" stroke="#000000" stroke-width="0.9889" stroke-miterlimit="10" x1="70.6" y1="276.1" x2="71.4" y2="277.9"/>
	<line fill="none" stroke="#000000" stroke-width="0.9889" stroke-miterlimit="10" x1="69.5" y1="276.5" x2="70.2" y2="278.4"/>
	<line fill="none" stroke="#000000" stroke-width="0.9889" stroke-miterlimit="10" x1="68.3" y1="277.1" x2="69.1" y2="278.8"/>
	<line fill="none" stroke="#000000" stroke-width="0.9889" stroke-miterlimit="10" x1="63" y1="248.4" x2="63.6" y2="250.3"/>
	<line fill="none" stroke="#000000" stroke-width="0.9889" stroke-miterlimit="10" x1="61.8" y1="248.4" x2="62.4" y2="250.4"/>
	<line fill="none" stroke="#000000" stroke-width="0.9889" stroke-miterlimit="10" x1="60.5" y1="248.5" x2="61.2" y2="250.4"/>
	<line fill="none" stroke="#000000" stroke-width="0.9889" stroke-miterlimit="10" x1="59" y1="251" x2="54.7" y2="256.7"/>
	<line fill="none" stroke="#000000" stroke-width="0.9889" stroke-miterlimit="10" x1="59" y1="249.3" x2="54.2" y2="255.5"/>
	<line fill="none" stroke="#000000" stroke-width="0.9889" stroke-miterlimit="10" x1="58.1" y1="254.4" x2="55.6" y2="257.8"/>
	<polyline fill="none" stroke="#000000" stroke-width="0.9889" stroke-miterlimit="10" points="55.9,262.4 52,277.1 54.6,277.6 
		58.2,265.2 	"/>
	<polyline fill="none" stroke="#000000" stroke-width="0.9889" stroke-miterlimit="10" points="65,268.4 67.9,276.1 70.2,275.4 
		65,260.9 	"/>
	<line fill="none" stroke="#000000" stroke-width="0.9889" stroke-miterlimit="10" x1="77" y1="271.4" x2="77.7" y2="273.3"/>
	<line fill="none" stroke="#000000" stroke-width="0.9889" stroke-miterlimit="10" x1="75.8" y1="271.8" x2="76.5" y2="273.7"/>
	<line fill="none" stroke="#000000" stroke-width="0.9889" stroke-miterlimit="10" x1="74.6" y1="272.3" x2="75.4" y2="274.2"/>
	<polyline fill="none" stroke="#000000" stroke-width="0.9889" stroke-miterlimit="10" points="71.3,263.8 74.2,271.4 76.5,270.6 
		71.3,256.2 	"/>
	<polyline fill="none" stroke="#000000" stroke-width="0.9889" stroke-miterlimit="10" points="65.6,275.8 70,292.3 66.7,293.1 
		63.3,278.8 	"/>
	<polyline fill="none" stroke="#000000" stroke-width="0.9889" stroke-miterlimit="10" points="56.9,274.4 53.7,292.5 57.2,293 
		59.1,281.2 	"/>
	<polyline fill="none" stroke="#000000" stroke-width="0.9889" stroke-miterlimit="10" points="72,292 72.5,293.9 66.6,295.4 	"/>
	<polyline fill="none" stroke="#000000" stroke-width="0.9889" stroke-miterlimit="10" points="73.1,272.4 77.6,289 74.3,289.7 
		71.9,279.9 	"/>
	<polyline fill="none" stroke="#000000" stroke-width="0.9889" stroke-miterlimit="10" points="79.6,288.5 80,290.4 74.2,292 	"/>
	<polyline fill="none" stroke="#000000" stroke-width="0.9889" stroke-miterlimit="10" points="58.9,293.7 58.4,295.5 53.1,294.8 	
		"/>
</g>
<g>
	<polyline fill="none" stroke="#000000" stroke-width="0.9889" stroke-miterlimit="10" points="400.7,263.8 400.7,255.3 
		441.5,255.3 441.5,263.8 	"/>
	<line fill="none" stroke="#000000" stroke-width="0.9889" stroke-miterlimit="10" x1="415.7" y1="259.6" x2="430.7" y2="259.6"/>
	<line fill="none" stroke="#000000" stroke-width="0.9889" stroke-miterlimit="10" x1="425.6" y1="257.4" x2="425.6" y2="261.9"/>
	<polyline fill="none" stroke="#000000" stroke-width="0.9889" stroke-miterlimit="10" points="452,263.8 452,255.3 492.8,255.3 
		492.8,263.8 	"/>
	<line fill="none" stroke="#000000" stroke-width="0.9889" stroke-miterlimit="10" x1="467" y1="259.6" x2="482" y2="259.6"/>
	<line fill="none" stroke="#000000" stroke-width="0.9889" stroke-miterlimit="10" x1="476.9" y1="257.4" x2="476.9" y2="261.9"/>
	<polyline fill="none" stroke="#000000" stroke-width="0.9889" stroke-miterlimit="10" points="400.7,282.7 400.7,274.2 
		441.5,274.2 441.5,282.7 	"/>
	<line fill="none" stroke="#000000" stroke-width="0.9889" stroke-miterlimit="10" x1="415.7" y1="278.5" x2="430.7" y2="278.5"/>
	<line fill="none" stroke="#000000" stroke-width="0.9889" stroke-miterlimit="10" x1="425.6" y1="276.3" x2="425.6" y2="280.9"/>
	<polyline fill="none" stroke="#000000" stroke-width="0.9889" stroke-miterlimit="10" points="452,282.7 452,274.2 492.8,274.2 
		492.8,282.7 	"/>
	<line fill="none" stroke="#000000" stroke-width="0.9889" stroke-miterlimit="10" x1="467" y1="278.5" x2="482" y2="278.5"/>
	<line fill="none" stroke="#000000" stroke-width="0.9889" stroke-miterlimit="10" x1="476.9" y1="276.3" x2="476.9" y2="280.9"/>
	<polyline fill="none" stroke="#000000" stroke-width="0.9889" stroke-miterlimit="10" points="400.7,318.3 400.7,309.7 
		441.5,309.7 441.5,318.3 	"/>
	<line fill="none" stroke="#000000" stroke-width="0.9889" stroke-miterlimit="10" x1="415.7" y1="314" x2="430.7" y2="314"/>
	<line fill="none" stroke="#000000" stroke-width="0.9889" stroke-miterlimit="10" x1="425.6" y1="311.9" x2="425.6" y2="316.4"/>
	<polyline fill="none" stroke="#000000" stroke-width="0.9889" stroke-miterlimit="10" points="452,318.3 452,309.7 492.8,309.7 
		492.8,318.3 	"/>
	<line fill="none" stroke="#000000" stroke-width="0.9889" stroke-miterlimit="10" x1="467" y1="314" x2="482" y2="314"/>
	<line fill="none" stroke="#000000" stroke-width="0.9889" stroke-miterlimit="10" x1="476.9" y1="311.9" x2="476.9" y2="316.4"/>
	<polyline fill="none" stroke="#000000" stroke-width="0.9889" stroke-miterlimit="10" points="400.7,336.5 400.7,328 441.5,328 
		441.5,336.5 	"/>
	<line fill="none" stroke="#000000" stroke-width="0.9889" stroke-miterlimit="10" x1="415.7" y1="332.3" x2="430.7" y2="332.3"/>
	<line fill="none" stroke="#000000" stroke-width="0.9889" stroke-miterlimit="10" x1="425.6" y1="330.2" x2="425.6" y2="334.8"/>
	<polyline fill="none" stroke="#000000" stroke-width="0.9889" stroke-miterlimit="10" points="452,336.5 452,328 492.8,328 
		492.8,336.5 	"/>
	<line fill="none" stroke="#000000" stroke-width="0.9889" stroke-miterlimit="10" x1="467" y1="332.3" x2="482" y2="332.3"/>
	<line fill="none" stroke="#000000" stroke-width="0.9889" stroke-miterlimit="10" x1="476.9" y1="330.2" x2="476.9" y2="334.8"/>
	<polyline fill="none" stroke="#000000" stroke-width="0.9889" stroke-miterlimit="10" points="531.6,263.8 531.6,255.3 
		572.4,255.3 572.4,263.8 	"/>
	<line fill="none" stroke="#000000" stroke-width="0.9889" stroke-miterlimit="10" x1="546.6" y1="259.6" x2="561.6" y2="259.6"/>
	<line fill="none" stroke="#000000" stroke-width="0.9889" stroke-miterlimit="10" x1="556.5" y1="257.4" x2="556.5" y2="261.9"/>
	<polygon fill="none" stroke="#000000" stroke-width="0.9889" stroke-miterlimit="10" points="569.5,311.3 564.5,303.6 524.4,311.8 
		529.4,319.5 	"/>
	<line fill="none" stroke="#000000" stroke-width="0.9889" stroke-miterlimit="10" x1="543.4" y1="312.2" x2="558" y2="309.3"/>
	<line fill="none" stroke="#000000" stroke-width="0.9889" stroke-miterlimit="10" x1="550.6" y1="308" x2="553.5" y2="312.6"/>
	<polyline fill="none" stroke="#000000" stroke-width="0.9889" stroke-miterlimit="10" points="531.6,283.1 531.6,274.5 
		572.4,274.5 572.4,283.1 	"/>
	<line fill="none" stroke="#000000" stroke-width="0.9889" stroke-miterlimit="10" x1="540.6" y1="317.2" x2="572.4" y2="317.2"/>
	<line fill="none" stroke="#000000" stroke-width="0.9889" stroke-miterlimit="10" x1="546.6" y1="278.8" x2="561.6" y2="278.8"/>
	<line fill="none" stroke="#000000" stroke-width="0.9889" stroke-miterlimit="10" x1="556.5" y1="276.6" x2="556.5" y2="281.2"/>
	<polyline fill="none" stroke="#000000" stroke-width="0.9889" stroke-miterlimit="10" points="531.6,336.5 531.6,328 572.4,328 
		572.4,336.5 	"/>
	<line fill="none" stroke="#000000" stroke-width="0.9889" stroke-miterlimit="10" x1="546.6" y1="332.3" x2="561.6" y2="332.3"/>
	<line fill="none" stroke="#000000" stroke-width="0.9889" stroke-miterlimit="10" x1="556.5" y1="330.2" x2="556.5" y2="334.8"/>
	<polyline fill="none" stroke="#000000" stroke-width="0.9889" stroke-miterlimit="10" points="319.3,264.1 319.3,255.6 
		360.1,255.6 360.1,264.1 	"/>
	<line fill="none" stroke="#000000" stroke-width="0.9889" stroke-miterlimit="10" x1="334.3" y1="259.8" x2="349.3" y2="259.8"/>
	<line fill="none" stroke="#000000" stroke-width="0.9889" stroke-miterlimit="10" x1="344.2" y1="257.7" x2="344.2" y2="262.2"/>
	<polyline fill="none" stroke="#000000" stroke-width="0.9889" stroke-miterlimit="10" points="319.3,283.1 319.3,274.5 
		360.1,274.5 360.1,283.1 	"/>
	<line fill="none" stroke="#000000" stroke-width="0.9889" stroke-miterlimit="10" x1="334.3" y1="278.8" x2="349.3" y2="278.8"/>
	<line fill="none" stroke="#000000" stroke-width="0.9889" stroke-miterlimit="10" x1="344.2" y1="276.6" x2="344.2" y2="281.2"/>
	<polyline fill="none" stroke="#000000" stroke-width="0.9889" stroke-miterlimit="10" points="319.3,318.6 319.3,310 360.1,310 
		360.1,318.6 	"/>
	<line fill="none" stroke="#000000" stroke-width="0.9889" stroke-miterlimit="10" x1="334.3" y1="314.3" x2="349.3" y2="314.3"/>
	<line fill="none" stroke="#000000" stroke-width="0.9889" stroke-miterlimit="10" x1="344.2" y1="312.2" x2="344.2" y2="316.8"/>
	<polyline fill="none" stroke="#000000" stroke-width="0.9889" stroke-miterlimit="10" points="319.3,336.9 319.3,328.3 
		360.1,328.3 360.1,336.9 	"/>
	<line fill="none" stroke="#000000" stroke-width="0.9889" stroke-miterlimit="10" x1="334.3" y1="332.7" x2="349.3" y2="332.7"/>
	<line fill="none" stroke="#000000" stroke-width="0.9889" stroke-miterlimit="10" x1="344.2" y1="330.4" x2="344.2" y2="335.1"/>
	<line fill="none" stroke="#000000" stroke-width="0.9889" stroke-miterlimit="10" x1="374.8" y1="266.9" x2="374.7" y2="268.9"/>
	<line fill="none" stroke="#000000" stroke-width="0.9889" stroke-miterlimit="10" x1="373.6" y1="266.8" x2="373.4" y2="268.9"/>
	<line fill="none" stroke="#000000" stroke-width="0.9889" stroke-miterlimit="10" x1="372.2" y1="266.7" x2="372.1" y2="268.8"/>
	<polyline fill="none" stroke="#000000" stroke-width="0.9889" stroke-miterlimit="10" points="373.3,250.8 371.9,265.9 
		374.7,266.2 375.9,253.4 	"/>
	<line fill="none" stroke="#000000" stroke-width="0.9889" stroke-miterlimit="10" x1="381.6" y1="263.8" x2="380.5" y2="249.1"/>
	<line fill="none" stroke="#000000" stroke-width="0.9889" stroke-miterlimit="10" x1="386.8" y1="260.8" x2="384.6" y2="245.8"/>
	<polyline fill="none" stroke="#000000" stroke-width="0.9889" stroke-miterlimit="10" points="374.3,269.9 374.3,280.8 
		378.4,280.8 378.4,267.3 	"/>
	<polyline fill="none" stroke="#000000" stroke-width="0.9889" stroke-miterlimit="10" points="379.3,280.3 380.5,280.3 
		380.5,264.8 	"/>
	<polyline fill="none" stroke="#000000" stroke-width="0.9889" stroke-miterlimit="10" points="379.8,281.3 379.8,283.3 
		374.3,283.3 	"/>
	<polyline fill="none" stroke="#000000" stroke-width="0.9889" stroke-miterlimit="10" points="382.1,280.3 382.1,282.2 
		380.8,282.2 	"/>
	<polyline fill="none" stroke="#000000" stroke-width="0.9889" stroke-miterlimit="10" points="381.6,277.2 384.1,277.2 
		384.1,266.4 	"/>
	<line fill="none" stroke="#000000" stroke-width="0.9889" stroke-miterlimit="10" x1="386" y1="276.6" x2="385.5" y2="260.5"/>
	<polyline fill="none" stroke="#000000" stroke-width="0.9889" stroke-miterlimit="10" points="385.6,277.7 385.6,279.7 
		382.9,279.7 	"/>
	<line fill="none" stroke="#000000" stroke-width="0.9889" stroke-miterlimit="10" x1="387.2" y1="276.7" x2="387.2" y2="278.6"/>
	<path fill="none" stroke="#000000" stroke-width="0.9889" stroke-miterlimit="10" d="M385,238.3l1.2,2.7H385c0,0,0.3,3.8-1.6,3.8"
		/>
	<path fill="none" stroke="#000000" stroke-width="0.9889" stroke-miterlimit="10" d="M379.8,241.9l1.2,2.7h-1.2
		c0,0,0.3,3.8-1.6,3.8"/>
	<path d="M378.2,242.1c0.1,0.2-0.1,0.4-0.2,0.4c-0.2,0.1-0.4-0.1-0.4-0.2c-0.1-0.2,0.2,0,0.3-0.1C378,242.2,378.1,242,378.2,242.1z"
		/>
	<path d="M383.7,239c0.1,0.2-0.1,0.4-0.2,0.4c-0.2,0.1-0.4-0.1-0.4-0.2c-0.1-0.2,0.2,0,0.3-0.1C383.6,239,383.7,238.8,383.7,239z"/>
	<line fill="none" stroke="#000000" stroke-width="0.9889" stroke-miterlimit="10" x1="381" y1="235" x2="381.9" y2="236.8"/>
	<line fill="none" stroke="#000000" stroke-width="0.9889" stroke-miterlimit="10" x1="379.9" y1="235.7" x2="380.9" y2="237.5"/>
	<line fill="none" stroke="#000000" stroke-width="0.9889" stroke-miterlimit="10" x1="378.8" y1="236.3" x2="379.8" y2="238.1"/>
	<line fill="none" stroke="#000000" stroke-width="0.9889" stroke-miterlimit="10" x1="379" y1="238.8" x2="379.6" y2="240.7"/>
	<line fill="none" stroke="#000000" stroke-width="0.9889" stroke-miterlimit="10" x1="377.8" y1="238.8" x2="378.5" y2="240.8"/>
	<line fill="none" stroke="#000000" stroke-width="0.9889" stroke-miterlimit="10" x1="376.6" y1="238.9" x2="377.2" y2="240.8"/>
	<line fill="none" stroke="#000000" stroke-width="0.9889" stroke-miterlimit="10" x1="375" y1="241.5" x2="370.8" y2="247.1"/>
	<line fill="none" stroke="#000000" stroke-width="0.9889" stroke-miterlimit="10" x1="375" y1="239.7" x2="370.2" y2="245.9"/>
	<line fill="none" stroke="#000000" stroke-width="0.9889" stroke-miterlimit="10" x1="374.1" y1="244.8" x2="371.6" y2="248.3"/>
</g>
<g>
	<polyline fill="none" stroke="#000000" stroke-width="0.9889" stroke-miterlimit="10" points="455,555 455,546.4 495.9,546.4 
		495.9,555 	"/>
	<line fill="none" stroke="#000000" stroke-width="0.9889" stroke-miterlimit="10" x1="470.1" y1="550.6" x2="485" y2="550.6"/>
	<line fill="none" stroke="#000000" stroke-width="0.9889" stroke-miterlimit="10" x1="480" y1="548.5" x2="480" y2="553.1"/>
	<polyline fill="none" stroke="#000000" stroke-width="0.9889" stroke-miterlimit="10" points="455,573.9 455,565.4 495.9,565.4 
		495.9,573.9 	"/>
	<line fill="none" stroke="#000000" stroke-width="0.9889" stroke-miterlimit="10" x1="470.1" y1="569.7" x2="485" y2="569.7"/>
	<line fill="none" stroke="#000000" stroke-width="0.9889" stroke-miterlimit="10" x1="480" y1="567.5" x2="480" y2="572"/>
	<polyline fill="none" stroke="#000000" stroke-width="0.9889" stroke-miterlimit="10" points="455,609.5 455,600.9 495.9,600.9 
		495.9,609.5 	"/>
	<line fill="none" stroke="#000000" stroke-width="0.9889" stroke-miterlimit="10" x1="470.1" y1="605.2" x2="485" y2="605.2"/>
	<line fill="none" stroke="#000000" stroke-width="0.9889" stroke-miterlimit="10" x1="480" y1="603.1" x2="480" y2="607.6"/>
	<polyline fill="none" stroke="#000000" stroke-width="0.9889" stroke-miterlimit="10" points="455,627.7 455,619.2 495.9,619.2 
		495.9,627.7 	"/>
	<line fill="none" stroke="#000000" stroke-width="0.9889" stroke-miterlimit="10" x1="470.1" y1="623.5" x2="485" y2="623.5"/>
	<line fill="none" stroke="#000000" stroke-width="0.9889" stroke-miterlimit="10" x1="480" y1="621.3" x2="480" y2="625.9"/>
	<polyline fill="none" stroke="#000000" stroke-width="0.9889" stroke-miterlimit="10" points="536.2,555.6 536.2,546.8 578,546.8 
		578,555.6 	"/>
	<line fill="none" stroke="#000000" stroke-width="0.9889" stroke-miterlimit="10" x1="551.7" y1="551.2" x2="567" y2="551.2"/>
	<line fill="none" stroke="#000000" stroke-width="0.9889" stroke-miterlimit="10" x1="561.8" y1="549" x2="561.8" y2="553.7"/>
	<polyline fill="none" stroke="#000000" stroke-width="0.9889" stroke-miterlimit="10" points="564.8,601.1 574.4,596.9 
		567.7,590.3 529.6,607.3 536.2,613.8 560.4,603.1 	"/>
	<line fill="none" stroke="#000000" stroke-width="0.9889" stroke-miterlimit="10" x1="548.5" y1="603.6" x2="562.5" y2="597.4"/>
	<line fill="none" stroke="#000000" stroke-width="0.9889" stroke-miterlimit="10" x1="554.9" y1="597.7" x2="558.7" y2="601.7"/>
	<polyline fill="none" stroke="#000000" stroke-width="0.9889" stroke-miterlimit="10" points="536.2,573.8 536.2,565.1 578,565.1 
		578,573.8 	"/>
	<line fill="none" stroke="#000000" stroke-width="0.9889" stroke-miterlimit="10" x1="545.6" y1="610" x2="578" y2="610"/>
	<line fill="none" stroke="#000000" stroke-width="0.9889" stroke-miterlimit="10" x1="551.7" y1="569.4" x2="567" y2="569.4"/>
	<line fill="none" stroke="#000000" stroke-width="0.9889" stroke-miterlimit="10" x1="561.8" y1="567.2" x2="561.8" y2="571.9"/>
	<polyline fill="none" stroke="#000000" stroke-width="0.9889" stroke-miterlimit="10" points="536.2,627.8 536.2,619.1 578,619.1 
		578,627.8 	"/>
	<line fill="none" stroke="#000000" stroke-width="0.9889" stroke-miterlimit="10" x1="551.7" y1="623.4" x2="567" y2="623.4"/>
	<line fill="none" stroke="#000000" stroke-width="0.9889" stroke-miterlimit="10" x1="561.8" y1="621.2" x2="561.8" y2="625.8"/>
	<ellipse transform="matrix(0.8736 0.4866 -0.4866 0.8736 365.33 -202.1345)" cx="571.8" cy="602.3" rx="0.5" ry="0.4"/>
	<polyline fill="none" stroke="#000000" stroke-width="0.9889" stroke-miterlimit="10" points="573.8,606.9 575.2,608.5 
		572.7,609.2 	"/>
	<path fill="none" stroke="#000000" stroke-width="0.9889" stroke-miterlimit="10" d="M570.6,600.3l-2.5,1.6l1.1,0.7
		c0,0-2.4,3.1-0.8,4.1"/>
	<polyline fill="none" stroke="#000000" stroke-width="0.9889" stroke-miterlimit="10" points="568.6,603.6 570.3,604.8 
		569.2,605.5 569.5,604.3 	"/>
	<line fill="none" stroke="#000000" stroke-width="0.9889" stroke-miterlimit="10" x1="577.9" y1="599.8" x2="574.2" y2="600.9"/>
	<line fill="none" stroke="#000000" stroke-width="0.9889" stroke-miterlimit="10" x1="575.8" y1="599.1" x2="573" y2="599.9"/>
	<line fill="none" stroke="#000000" stroke-width="0.9889" stroke-miterlimit="10" x1="573.5" y1="602" x2="571.5" y2="601.6"/>
	<line fill="none" stroke="#000000" stroke-width="0.9889" stroke-miterlimit="10" x1="578.7" y1="601.2" x2="575.2" y2="602.1"/>
	<line fill="none" stroke="#000000" stroke-width="0.9889" stroke-miterlimit="10" x1="579.2" y1="602.4" x2="575.6" y2="603.5"/>
	<polyline fill="none" stroke="#000000" stroke-width="0.9889" stroke-miterlimit="10" points="565.6,610.2 563.9,603.5 
		561.3,604.2 562.1,610 	"/>
	<line fill="none" stroke="#000000" stroke-width="0.9889" stroke-miterlimit="10" x1="563.8" y1="602.1" x2="562.7" y2="600"/>
	<line fill="none" stroke="#000000" stroke-width="0.9889" stroke-miterlimit="10" x1="562.8" y1="602.7" x2="561.8" y2="600.6"/>
	<line fill="none" stroke="#000000" stroke-width="0.9889" stroke-miterlimit="10" x1="561.9" y1="603.1" x2="560.8" y2="601.1"/>
	<path fill="none" stroke="#000000" stroke-width="0.9889" stroke-miterlimit="10" d="M344.4,559l-1.2,2.5h1.2c0,0,0,0.5,0,1.2
		c0,0.2,1.4-0.6,1.5,0.6c0,0.2-1.3,0.4-1.3,0.6c0.2,0.6,0.5,1.5,1.3,1.5"/>
	<path fill="none" stroke="#000000" stroke-width="0.9889" stroke-miterlimit="10" d="M367.1,563.3l-1.1,2.5h1.1c0,0,0,0.5,0,1.2
		c0,0.2,1.5-0.6,1.5,0.6c0,0.9-1.3,0.4-1.3,0.6c0.2,0.6,0.4,2.1,2.1,2"/>
	<polyline fill="none" stroke="#000000" stroke-width="0.9889" stroke-miterlimit="10" points="371.6,572.9 350.7,572.9 
		350.7,575.9 367.7,575.9 	"/>
	<polyline fill="none" stroke="#000000" stroke-width="0.9889" stroke-miterlimit="10" points="348.4,572.9 348.4,569.7 366,569.7 	
		"/>
	<polyline fill="none" stroke="#000000" stroke-width="0.9889" stroke-miterlimit="10" points="377.7,582.5 384.9,590.2 
		393.4,584.1 395.4,587.2 384.1,595.3 376.9,587.6 	"/>
	<polyline fill="none" stroke="#000000" stroke-width="0.9889" stroke-miterlimit="10" points="367.7,584.9 353.7,589.5 
		350.3,602.7 354.4,603.5 357.4,592.7 367,589.2 	"/>
	<line fill="none" stroke="#000000" stroke-width="0.9889" stroke-miterlimit="10" x1="350" y1="573.7" x2="347.3" y2="573.7"/>
	<line fill="none" stroke="#000000" stroke-width="0.9889" stroke-miterlimit="10" x1="350" y1="574.4" x2="347.3" y2="574.4"/>
	<line fill="none" stroke="#000000" stroke-width="0.9889" stroke-miterlimit="10" x1="350" y1="575.5" x2="347.3" y2="575.5"/>
	<line fill="none" stroke="#000000" stroke-width="0.9889" stroke-miterlimit="10" x1="347.4" y1="570.2" x2="344.5" y2="570.2"/>
	<line fill="none" stroke="#000000" stroke-width="0.9889" stroke-miterlimit="10" x1="347.4" y1="571.2" x2="344.5" y2="571.2"/>
	<line fill="none" stroke="#000000" stroke-width="0.9889" stroke-miterlimit="10" x1="347.4" y1="572.1" x2="344.5" y2="572.1"/>
	<polyline fill="none" stroke="#000000" stroke-width="0.9889" stroke-miterlimit="10" points="344.3,568.5 327.5,568.5 
		327.5,571.6 342.4,571.6 	"/>
	<polyline fill="none" stroke="#000000" stroke-width="0.9889" stroke-miterlimit="10" points="325.2,568.5 325.2,565.4 
		342.8,565.4 	"/>
	<line fill="none" stroke="#000000" stroke-width="0.9889" stroke-miterlimit="10" x1="326.9" y1="569.1" x2="324" y2="569.1"/>
	<line fill="none" stroke="#000000" stroke-width="0.9889" stroke-miterlimit="10" x1="326.9" y1="570" x2="324" y2="570"/>
	<line fill="none" stroke="#000000" stroke-width="0.9889" stroke-miterlimit="10" x1="326.9" y1="571.1" x2="324" y2="571.1"/>
	<line fill="none" stroke="#000000" stroke-width="0.9889" stroke-miterlimit="10" x1="324.1" y1="565.8" x2="321.4" y2="565.8"/>
	<line fill="none" stroke="#000000" stroke-width="0.9889" stroke-miterlimit="10" x1="324.1" y1="566.7" x2="321.4" y2="566.7"/>
	<line fill="none" stroke="#000000" stroke-width="0.9889" stroke-miterlimit="10" x1="324.1" y1="567.8" x2="321.4" y2="567.8"/>
	<polyline fill="none" stroke="#000000" stroke-width="0.9889" stroke-miterlimit="10" points="343.4,581.2 325.6,595 328.1,598.2 
		342.8,587.5 	"/>
	<polyline fill="none" stroke="#000000" stroke-width="0.9889" stroke-miterlimit="10" points="348.7,603 348.3,604.4 354.1,605.9 	
		"/>
	<polyline fill="none" stroke="#000000" stroke-width="0.9889" stroke-miterlimit="10" points="324,594.2 322.9,595.1 326.2,599.6 	
		"/>
	<polyline fill="none" stroke="#000000" stroke-width="0.9889" stroke-miterlimit="10" points="397.2,588.2 398.6,587.2 
		395.4,582.5 	"/>
	<polyline fill="none" stroke="#000000" stroke-width="0.9889" stroke-miterlimit="10" points="373.7,589 362.4,597.1 360.3,594.9 	
		"/>
	<line fill="none" stroke="#000000" stroke-width="0.9889" stroke-miterlimit="10" x1="373.5" y1="560.9" x2="371.7" y2="561.2"/>
	<line fill="none" stroke="#000000" stroke-width="0.9889" stroke-miterlimit="10" x1="374.5" y1="561.9" x2="372.6" y2="562.2"/>
	<line fill="none" stroke="#000000" stroke-width="0.9889" stroke-miterlimit="10" x1="372.1" y1="560" x2="370.2" y2="560.3"/>
	<line fill="none" stroke="#000000" stroke-width="0.9889" stroke-miterlimit="10" x1="351.2" y1="559.6" x2="357.5" y2="558.3"/>
	<line fill="none" stroke="#000000" stroke-width="0.9889" stroke-miterlimit="10" x1="350.9" y1="557.6" x2="357.9" y2="556.1"/>
	<line fill="none" stroke="#000000" stroke-width="0.9889" stroke-miterlimit="10" x1="351.6" y1="561.9" x2="355.4" y2="561.2"/>
	<line fill="none" stroke="#000000" stroke-width="0.9889" stroke-miterlimit="10" x1="346.5" y1="555.5" x2="349.6" y2="554.6"/>
	<line fill="none" stroke="#000000" stroke-width="0.9889" stroke-miterlimit="10" x1="347.8" y1="555.8" x2="350.9" y2="555.1"/>
	<line fill="none" stroke="#000000" stroke-width="0.9889" stroke-miterlimit="10" x1="349.2" y1="556.5" x2="352.2" y2="555.7"/>
	<ellipse cx="346.8" cy="559.3" rx="0.5" ry="0.3"/>
	<ellipse cx="369.2" cy="563.5" rx="0.5" ry="0.3"/>
	<line fill="none" stroke="#000000" stroke-width="0.9889" stroke-miterlimit="10" x1="388.6" y1="574.6" x2="400.5" y2="574.6"/>
	<line fill="none" stroke="#000000" stroke-width="0.9889" stroke-miterlimit="10" x1="390.8" y1="576.2" x2="405.4" y2="576.2"/>
</g>
<g>
	<polyline fill="none" stroke="#000000" stroke-width="0.9889" stroke-miterlimit="10" points="27.9,554.8 27.9,546.3 68.9,546.3 
		68.9,554.8 	"/>
	<line fill="none" stroke="#000000" stroke-width="0.9889" stroke-miterlimit="10" x1="43.1" y1="550.5" x2="58" y2="550.5"/>
	<line fill="none" stroke="#000000" stroke-width="0.9889" stroke-miterlimit="10" x1="53" y1="548.4" x2="53" y2="553"/>
	<polyline fill="none" stroke="#000000" stroke-width="0.9889" stroke-miterlimit="10" points="27.9,573.8 27.9,565.3 68.9,565.3 
		68.9,573.8 	"/>
	<line fill="none" stroke="#000000" stroke-width="0.9889" stroke-miterlimit="10" x1="43.1" y1="569.6" x2="58" y2="569.6"/>
	<line fill="none" stroke="#000000" stroke-width="0.9889" stroke-miterlimit="10" x1="53" y1="567.4" x2="53" y2="571.9"/>
	<polyline fill="none" stroke="#000000" stroke-width="0.9889" stroke-miterlimit="10" points="27.9,609.4 27.9,600.8 68.9,600.8 
		68.9,609.4 	"/>
	<line fill="none" stroke="#000000" stroke-width="0.9889" stroke-miterlimit="10" x1="43.1" y1="605.1" x2="58" y2="605.1"/>
	<line fill="none" stroke="#000000" stroke-width="0.9889" stroke-miterlimit="10" x1="53" y1="603" x2="53" y2="607.5"/>
	<polyline fill="none" stroke="#000000" stroke-width="0.9889" stroke-miterlimit="10" points="27.9,627.6 27.9,619.1 68.9,619.1 
		68.9,627.6 	"/>
	<line fill="none" stroke="#000000" stroke-width="0.9889" stroke-miterlimit="10" x1="43.1" y1="623.4" x2="58" y2="623.4"/>
	<line fill="none" stroke="#000000" stroke-width="0.9889" stroke-miterlimit="10" x1="53" y1="621.2" x2="53" y2="625.8"/>
	<polyline fill="none" stroke="#000000" stroke-width="0.9889" stroke-miterlimit="10" points="107.1,555.7 107.1,547.2 
		147.9,547.2 147.9,555.7 	"/>
	<line fill="none" stroke="#000000" stroke-width="0.9889" stroke-miterlimit="10" x1="122.1" y1="551.5" x2="137.1" y2="551.5"/>
	<line fill="none" stroke="#000000" stroke-width="0.9889" stroke-miterlimit="10" x1="132" y1="550" x2="132" y2="554.5"/>
	<polyline fill="none" stroke="#000000" stroke-width="0.9889" stroke-miterlimit="10" points="107.1,574.8 107.1,566.2 
		147.9,566.2 	"/>
	<line fill="none" stroke="#000000" stroke-width="0.9889" stroke-miterlimit="10" x1="122.1" y1="570.4" x2="137.1" y2="570.4"/>
	<line fill="none" stroke="#000000" stroke-width="0.9889" stroke-miterlimit="10" x1="132" y1="569.1" x2="132" y2="573.6"/>
	<polyline fill="none" stroke="#000000" stroke-width="0.9889" stroke-miterlimit="10" points="107.1,610.5 107.1,601.8 148,601.8 
		148,610.5 	"/>
	<line fill="none" stroke="#000000" stroke-width="0.9889" stroke-miterlimit="10" x1="122.2" y1="606.1" x2="137.2" y2="606.1"/>
	<line fill="none" stroke="#000000" stroke-width="0.9889" stroke-miterlimit="10" x1="132.1" y1="604" x2="132.1" y2="608.6"/>
	<polyline fill="none" stroke="#000000" stroke-width="0.9889" stroke-miterlimit="10" points="107.1,628.7 107.1,620.1 148,620.1 
		148,628.7 	"/>
	<line fill="none" stroke="#000000" stroke-width="0.9889" stroke-miterlimit="10" x1="122" y1="623.7" x2="137" y2="623.7"/>
	<line fill="none" stroke="#000000" stroke-width="0.9889" stroke-miterlimit="10" x1="132.1" y1="622.2" x2="132.1" y2="626.9"/>
	<polyline fill="none" stroke="#000000" stroke-width="0.9889" stroke-miterlimit="10" points="176.6,546.2 201.3,546.2 
		201.3,554.7 	"/>
	<line fill="none" stroke="#000000" stroke-width="0.9889" stroke-miterlimit="10" x1="180" y1="550.5" x2="190.5" y2="550.5"/>
	<line fill="none" stroke="#000000" stroke-width="0.9889" stroke-miterlimit="10" x1="185.4" y1="548.3" x2="185.4" y2="552.8"/>
	<polyline fill="none" stroke="#000000" stroke-width="0.9889" stroke-miterlimit="10" points="239.1,554.8 239.1,546.3 280,546.3 
		280,554.8 	"/>
	<line fill="none" stroke="#000000" stroke-width="0.9889" stroke-miterlimit="10" x1="254.2" y1="550.6" x2="269.1" y2="550.6"/>
	<line fill="none" stroke="#000000" stroke-width="0.9889" stroke-miterlimit="10" x1="264.1" y1="548.4" x2="264.1" y2="553"/>
	<polyline fill="none" stroke="#000000" stroke-width="0.9889" stroke-miterlimit="10" points="178.1,565.2 201.3,565.2 
		201.3,573.7 	"/>
	<line fill="none" stroke="#000000" stroke-width="0.9889" stroke-miterlimit="10" x1="184.4" y1="569.5" x2="190.5" y2="569.5"/>
	<line fill="none" stroke="#000000" stroke-width="0.9889" stroke-miterlimit="10" x1="185.4" y1="567.3" x2="185.4" y2="571.9"/>
	<polygon fill="none" stroke="#000000" stroke-width="0.9889" stroke-miterlimit="10" points="277,602.3 272.1,594.7 232,602.9 
		236.9,610.6 	"/>
	<line fill="none" stroke="#000000" stroke-width="0.9889" stroke-miterlimit="10" x1="250.9" y1="603.3" x2="265.6" y2="600.3"/>
	<line fill="none" stroke="#000000" stroke-width="0.9889" stroke-miterlimit="10" x1="258.2" y1="599.1" x2="261" y2="603.7"/>
	<polyline fill="none" stroke="#000000" stroke-width="0.9889" stroke-miterlimit="10" points="160.1,609.9 160.1,601.4 
		200.9,601.4 200.9,609.9 	"/>
	<line fill="none" stroke="#000000" stroke-width="0.9889" stroke-miterlimit="10" x1="175.2" y1="605.7" x2="190.2" y2="605.7"/>
	<line fill="none" stroke="#000000" stroke-width="0.9889" stroke-miterlimit="10" x1="185" y1="603.5" x2="185" y2="608"/>
	<polyline fill="none" stroke="#000000" stroke-width="0.9889" stroke-miterlimit="10" points="239.1,574.1 239.1,565.6 280,565.6 
		280,574.1 	"/>
	<line fill="none" stroke="#000000" stroke-width="0.9889" stroke-miterlimit="10" x1="248.2" y1="608.2" x2="280" y2="608.2"/>
	<line fill="none" stroke="#000000" stroke-width="0.9889" stroke-miterlimit="10" x1="254.2" y1="569.9" x2="269.1" y2="569.9"/>
	<line fill="none" stroke="#000000" stroke-width="0.9889" stroke-miterlimit="10" x1="264.1" y1="567.7" x2="264.1" y2="572.2"/>
	<polyline fill="none" stroke="#000000" stroke-width="0.9889" stroke-miterlimit="10" points="160.1,628.2 160.1,619.7 
		200.9,619.7 200.9,628.2 	"/>
	<line fill="none" stroke="#000000" stroke-width="0.9889" stroke-miterlimit="10" x1="175.2" y1="623.9" x2="190.2" y2="623.9"/>
	<line fill="none" stroke="#000000" stroke-width="0.9889" stroke-miterlimit="10" x1="185" y1="621.8" x2="185" y2="626.4"/>
	<polyline fill="none" stroke="#000000" stroke-width="0.9889" stroke-miterlimit="10" points="239.1,627.6 239.1,619.1 280,619.1 
		280,627.6 	"/>
	<line fill="none" stroke="#000000" stroke-width="0.9889" stroke-miterlimit="10" x1="254.2" y1="623.4" x2="269.1" y2="623.4"/>
	<line fill="none" stroke="#000000" stroke-width="0.9889" stroke-miterlimit="10" x1="264.1" y1="621.3" x2="264.1" y2="625.8"/>
	<path fill="none" stroke="#000000" stroke-width="0.9889" stroke-miterlimit="10" d="M98,525.5l1.2,2.7H98c0,0,0,0.5,0,1.3
		c0,0.2-1.6-0.7-1.6,0.6c0,0.2,1.4,0.4,1.4,0.7c-0.2,0.6-0.6,1.6-1.4,1.6"/>
	<path fill="none" stroke="#000000" stroke-width="0.9889" stroke-miterlimit="10" d="M91.1,530.3l1.2,2.7h-1.2c0,0,0,0.5,0,1.3
		c0,0.2-1.6-0.7-1.6,0.6c0,1.1,1.4,0.4,1.4,0.7c-0.2,0.6-0.4,2.2-2.3,2.2"/>
	<ellipse cx="96.1" cy="525.6" rx="0.4" ry="0.6"/>
	
		<ellipse transform="matrix(0.9959 9.037124e-02 -9.037124e-02 0.9959 50.6946 -13.3356)" cx="172.6" cy="553.1" rx="0.5" ry="0.4"/>
	<ellipse cx="88.8" cy="530.7" rx="0.4" ry="0.5"/>
	<line fill="none" stroke="#000000" stroke-width="0.9889" stroke-miterlimit="10" x1="94.3" y1="521.9" x2="94.8" y2="523.9"/>
	<line fill="none" stroke="#000000" stroke-width="0.9889" stroke-miterlimit="10" x1="92.1" y1="523.2" x2="93.5" y2="524.6"/>
	<line fill="none" stroke="#000000" stroke-width="0.9889" stroke-miterlimit="10" x1="90.7" y1="524.9" x2="92.4" y2="525.9"/>
	<line fill="none" stroke="#000000" stroke-width="0.9889" stroke-miterlimit="10" x1="82.2" y1="557.8" x2="82.1" y2="559.9"/>
	<line fill="none" stroke="#000000" stroke-width="0.9889" stroke-miterlimit="10" x1="81.1" y1="557.8" x2="81" y2="559.8"/>
	<line fill="none" stroke="#000000" stroke-width="0.9889" stroke-miterlimit="10" x1="79.8" y1="557.7" x2="79.6" y2="559.7"/>
	<line fill="none" stroke="#000000" stroke-width="0.9889" stroke-miterlimit="10" x1="94.6" y1="555.4" x2="95" y2="557.4"/>
	<line fill="none" stroke="#000000" stroke-width="0.9889" stroke-miterlimit="10" x1="93.3" y1="555.7" x2="93.8" y2="557.7"/>
	<line fill="none" stroke="#000000" stroke-width="0.9889" stroke-miterlimit="10" x1="92" y1="556" x2="92.5" y2="558"/>
	<line fill="none" stroke="#000000" stroke-width="0.9889" stroke-miterlimit="10" x1="88.7" y1="525.5" x2="89.2" y2="527.4"/>
	<line fill="none" stroke="#000000" stroke-width="0.9889" stroke-miterlimit="10" x1="87.1" y1="525.6" x2="88" y2="527.5"/>
	<line fill="none" stroke="#000000" stroke-width="0.9889" stroke-miterlimit="10" x1="85.5" y1="526" x2="86.5" y2="527.7"/>
	<line fill="none" stroke="#000000" stroke-width="0.9889" stroke-miterlimit="10" x1="83.8" y1="530.7" x2="78.3" y2="526.4"/>
	<line fill="none" stroke="#000000" stroke-width="0.9889" stroke-miterlimit="10" x1="85.1" y1="528.9" x2="79.1" y2="524.1"/>
	<line fill="none" stroke="#000000" stroke-width="0.9889" stroke-miterlimit="10" x1="83.2" y1="533.3" x2="79.9" y2="530.6"/>
	<polyline fill="none" stroke="#000000" stroke-width="0.9889" stroke-miterlimit="10" points="82.2,541.8 79.9,556.7 82.7,557.1 
		84.9,544.2 	"/>
	<polyline fill="none" stroke="#000000" stroke-width="0.9889" stroke-miterlimit="10" points="91.9,555.1 94.2,554.6 90.9,540 	"/>
	<line fill="none" stroke="#000000" stroke-width="0.9889" stroke-miterlimit="10" x1="102.9" y1="550.4" x2="103.6" y2="552.2"/>
	<line fill="none" stroke="#000000" stroke-width="0.9889" stroke-miterlimit="10" x1="101.7" y1="550.8" x2="102.4" y2="552.7"/>
	<line fill="none" stroke="#000000" stroke-width="0.9889" stroke-miterlimit="10" x1="100.6" y1="551.4" x2="101.3" y2="553.3"/>
	<polyline fill="none" stroke="#000000" stroke-width="0.9889" stroke-miterlimit="10" points="97.2,542.7 100.1,550.4 102.4,549.7 
		97.2,535.3 	"/>
	<polyline fill="none" stroke="#000000" stroke-width="0.9889" stroke-miterlimit="10" points="83.3,560.7 83.3,571.7 87.3,571.7 
		87.3,558.1 	"/>
	<polyline fill="none" stroke="#000000" stroke-width="0.9889" stroke-miterlimit="10" points="88.1,571.1 91.4,571.1 90.9,552.7 	
		"/>
	<polyline fill="none" stroke="#000000" stroke-width="0.9889" stroke-miterlimit="10" points="88.8,572.2 88.8,574.1 83.3,574.1 	
		"/>
	<polyline fill="none" stroke="#000000" stroke-width="0.9889" stroke-miterlimit="10" points="92.5,571.2 92.5,573.2 89.7,573.2 	
		"/>
	<polyline fill="none" stroke="#000000" stroke-width="0.9889" stroke-miterlimit="10" points="92.5,568.1 94.6,568.1 94.6,559.6 	
		"/>
	<polyline fill="none" stroke="#000000" stroke-width="0.9889" stroke-miterlimit="10" points="95.4,567.5 98.7,567.5 98.1,549.2 	
		"/>
	<polyline fill="none" stroke="#000000" stroke-width="0.9889" stroke-miterlimit="10" points="96,568.5 96,570.5 92.5,570.5 	"/>
	<polyline fill="none" stroke="#000000" stroke-width="0.9889" stroke-miterlimit="10" points="99.8,567.6 99.8,569.6 97,569.6 	"/>
	<path fill="none" stroke="#000000" stroke-width="0.9889" stroke-miterlimit="10" d="M167.8,555.1h-2l1.1,2.1c0,0-3.5,0.6-6.4,5.3
		c-2.9,4.6-2.5,12.2-5.1,17.4c-1.8,3.7-4.7,4.8-4.7,4.8h5.7"/>
	<path fill="none" stroke="#000000" stroke-width="0.9889" stroke-miterlimit="10" d="M174.6,552.2l1.2,2.7h-1.2
		c0,0,0.3,3.8-1.6,3.8"/>
	<polyline fill="none" stroke="#000000" stroke-width="0.9889" stroke-miterlimit="10" points="174.4,556 172.5,556 173,557.2 
		173.4,556.1 	"/>
	<line fill="none" stroke="#000000" stroke-width="0.9889" stroke-miterlimit="10" x1="169.1" y1="547.8" x2="171.4" y2="550.6"/>
	<line fill="none" stroke="#000000" stroke-width="0.9889" stroke-miterlimit="10" x1="171.2" y1="548.3" x2="173" y2="550.6"/>
	<line fill="none" stroke="#000000" stroke-width="0.9889" stroke-miterlimit="10" x1="171.4" y1="552" x2="173.2" y2="552.7"/>
	<line fill="none" stroke="#000000" stroke-width="0.9889" stroke-miterlimit="10" x1="167.6" y1="548.4" x2="169.9" y2="551.2"/>
	<line fill="none" stroke="#000000" stroke-width="0.9889" stroke-miterlimit="10" x1="166.6" y1="549.3" x2="168.9" y2="552"/>
	<polyline fill="none" stroke="#000000" stroke-width="0.9889" stroke-miterlimit="10" points="172.6,561.2 172.6,568.3 
		179.6,568.3 179.6,571.1 174,571.1 	"/>
	<line fill="none" stroke="#000000" stroke-width="0.9889" stroke-miterlimit="10" x1="180.5" y1="568.5" x2="182.8" y2="568.5"/>
	<line fill="none" stroke="#000000" stroke-width="0.9889" stroke-miterlimit="10" x1="180.5" y1="569.7" x2="182.8" y2="569.7"/>
	<line fill="none" stroke="#000000" stroke-width="0.9889" stroke-miterlimit="10" x1="180.5" y1="570.6" x2="182.8" y2="570.6"/>
	<polyline fill="none" stroke="#000000" stroke-width="0.9889" stroke-miterlimit="10" points="170.6,572 179.7,576.2 181.4,589.5 
		178,590.1 176.3,578.9 170.2,575.9 	"/>
	<polyline fill="none" stroke="#000000" stroke-width="0.9889" stroke-miterlimit="10" points="166.6,578.6 165.4,583 157.2,590.8 
		154.7,588.2 161.4,581.8 	"/>
	<polyline fill="none" stroke="#000000" stroke-width="0.9889" stroke-miterlimit="10" points="183.4,589.4 183.8,591.4 
		178.2,592.4 	"/>
	<polyline fill="none" stroke="#000000" stroke-width="0.9889" stroke-miterlimit="10" points="158.5,592.4 157,593.8 152.7,589.8 	
		"/>
	<line fill="none" stroke="#000000" stroke-width="0.9889" stroke-miterlimit="10" x1="154.7" y1="570" x2="146.4" y2="570"/>
	<line fill="none" stroke="#000000" stroke-width="0.9889" stroke-miterlimit="10" x1="152.7" y1="571.4" x2="144.1" y2="571.4"/>
</g>
</svg>
