<?xml version="1.0" encoding="utf-8"?>
<!-- Generator: Adobe Illustrator 18.1.1, SVG Export Plug-In . SVG Version: 6.00 Build 0)  -->
<svg version="1.1" id="Calque_1" xmlns="http://www.w3.org/2000/svg" xmlns:xlink="http://www.w3.org/1999/xlink" x="0px" y="0px"
	 viewBox="0 0 595.3 841.9" enable-background="new 0 0 595.3 841.9" xml:space="preserve">
<rect x="21.8" y="4.4" fill="#FFFFFF" stroke="#000000" stroke-width="4.948" stroke-miterlimit="10" width="277.8" height="277.8"/>
<g>
	<polyline fill="none" stroke="#000000" stroke-width="0.9896" stroke-miterlimit="10" points="103,226 103,161.7 109.1,161.7 
		109.1,189.1 	"/>
</g>
<polyline fill="none" stroke="#000000" stroke-width="0.9896" stroke-miterlimit="10" points="103,197.6 137.6,197.6 137.6,226 "/>
<g>
	<polyline fill="none" stroke="#000000" stroke-width="0.9896" stroke-miterlimit="10" points="161.3,183.9 131.9,183.9 
		131.9,177.8 182,177.8 182,226 157,226 	"/>
</g>
<path fill="none" stroke="#000000" stroke-width="0.9896" stroke-miterlimit="10" d="M129.8,135.4l2.9,6.3h-2.9c0,0,1,9-4.5,8.9"/>
<line fill="none" stroke="#000000" stroke-width="0.9896" stroke-miterlimit="10" x1="125" y1="133.3" x2="120.4" y2="126.5"/>
<line fill="none" stroke="#000000" stroke-width="0.9896" stroke-miterlimit="10" x1="122.8" y1="134.5" x2="118.2" y2="127.8"/>
<line fill="none" stroke="#000000" stroke-width="0.9896" stroke-miterlimit="10" x1="120.5" y1="136.6" x2="116" y2="130"/>
<ellipse cx="125.9" cy="137.7" rx="0.8" ry="0.6"/>
<polyline fill="none" stroke="#000000" stroke-width="0.9896" stroke-miterlimit="10" points="123.4,155.3 128.1,171 140.1,166.2 
	142.7,172.8 123.6,180 116,157.5 "/>
<line fill="none" stroke="#000000" stroke-width="0.9896" stroke-miterlimit="10" x1="142.7" y1="166.2" x2="148.1" y2="164.5"/>
<line fill="none" stroke="#000000" stroke-width="0.9896" stroke-miterlimit="10" x1="143.9" y1="168.7" x2="149.2" y2="166.9"/>
<line fill="none" stroke="#000000" stroke-width="0.9896" stroke-miterlimit="10" x1="144.6" y1="171.1" x2="150" y2="169.2"/>
<line fill="none" stroke="#000000" stroke-width="0.9896" stroke-miterlimit="10" x1="142.7" y1="159" x2="144.6" y2="165.2"/>
<line fill="none" stroke="#000000" stroke-width="0.9896" stroke-miterlimit="10" x1="147" y1="171.5" x2="148.3" y2="175.7"/>
<polyline fill="none" stroke="#000000" stroke-width="0.9896" stroke-miterlimit="10" points="129.8,187.5 145.4,187.9 159.6,217 
	152.5,220.5 141.4,197.6 "/>
<polyline fill="none" stroke="#000000" stroke-width="0.9896" stroke-miterlimit="10" points="163.9,216.3 165.3,219.5 154.4,224.6 
	"/>
<path fill="none" stroke="#000000" stroke-width="0.9896" stroke-miterlimit="10" d="M200.9,61.3c1.3-0.5,2.9-0.8,4.5-0.8
	c7.1,0,12.9,5.8,12.9,12.9c0,7.1-5.8,12.9-12.9,12.9c-7.1,0-12.9-5.8-12.9-12.9c0-2.6,0.7-4.9,2-7"/>
<polyline fill="none" stroke="#000000" stroke-width="0.9896" stroke-miterlimit="10" points="205.4,64.9 205.4,72.7 205.4,73.3 
	201.2,76.5 "/>
<rect x="299.5" y="4.4" fill="#FFFFFF" stroke="#000000" stroke-width="4.948" stroke-miterlimit="10" width="277.8" height="277.8"/>
<g>
	<path fill="none" stroke="#000000" stroke-width="0.9896" stroke-miterlimit="10" d="M418.9,147.9l2.9,6.3h-2.9
		c0,0-0.1,8.9-4.5,8.9"/>
	<line fill="none" stroke="#000000" stroke-width="0.9896" stroke-miterlimit="10" x1="414.2" y1="145.7" x2="409.5" y2="138.7"/>
	<line fill="none" stroke="#000000" stroke-width="0.9896" stroke-miterlimit="10" x1="411.9" y1="146.8" x2="407.3" y2="140.2"/>
	<line fill="none" stroke="#000000" stroke-width="0.9896" stroke-miterlimit="10" x1="409.6" y1="148.9" x2="405.1" y2="142.4"/>
	<ellipse transform="matrix(-0.9845 0.1752 -0.1752 -0.9845 849.1728 225.0805)" cx="414.7" cy="150" rx="1.1" ry="0.6"/>
	<g>
		<polyline fill="none" stroke="#000000" stroke-width="0.9896" stroke-miterlimit="10" points="380.2,225.9 380.2,161.7 386,161.7 
			386,189.1 		"/>
	</g>
	<polyline fill="none" stroke="#000000" stroke-width="0.9896" stroke-miterlimit="10" points="380.2,197.6 414.7,197.6 
		414.7,225.9 	"/>
	<g>
		<polyline fill="none" stroke="#000000" stroke-width="0.9896" stroke-miterlimit="10" points="438.3,183.9 409.1,183.9 
			409.1,177.8 459.2,177.8 459.2,225.9 434.1,225.9 		"/>
	</g>
	<polyline fill="none" stroke="#000000" stroke-width="0.9896" stroke-miterlimit="10" points="407,187.5 422.6,187.9 436.8,216.9 
		429.6,220.5 418.6,197.6 	"/>
	<polyline fill="none" stroke="#000000" stroke-width="0.9896" stroke-miterlimit="10" points="401.7,171.5 415.9,168.7 
		417.3,175.7 393.1,180 397.5,160.2 	"/>
	<line fill="none" stroke="#000000" stroke-width="0.9896" stroke-miterlimit="10" x1="418.2" y1="168.8" x2="424.8" y2="168.8"/>
	<line fill="none" stroke="#000000" stroke-width="0.9896" stroke-miterlimit="10" x1="418.8" y1="171.5" x2="425.6" y2="171.5"/>
	<line fill="none" stroke="#000000" stroke-width="0.9896" stroke-miterlimit="10" x1="419.3" y1="174.1" x2="426" y2="174.1"/>
	<line fill="none" stroke="#000000" stroke-width="0.9896" stroke-miterlimit="10" x1="420.6" y1="163.5" x2="421.4" y2="167.7"/>
	<line fill="none" stroke="#000000" stroke-width="0.9896" stroke-miterlimit="10" x1="423.1" y1="174.2" x2="423.6" y2="177.8"/>
	<path fill="none" stroke="#000000" stroke-width="0.9896" stroke-miterlimit="10" d="M479.3,61.3c1.3-0.5,2.9-0.8,4.5-0.8
		c7.1,0,12.9,5.8,12.9,12.9c0,7.1-5.8,12.9-12.9,12.9c-7.1,0-12.9-5.8-12.9-12.9c0-2.6,0.7-4.9,2-7"/>
	<polyline fill="none" stroke="#000000" stroke-width="0.9896" stroke-miterlimit="10" points="483.7,64.9 483.7,72.7 483.7,73.4 
		480.1,69.1 	"/>
	<polyline fill="none" stroke="#000000" stroke-width="0.9896" stroke-miterlimit="10" points="441.8,216.3 443.1,219.5 
		432.3,224.7 	"/>
</g>
<rect x="21.8" y="282" fill="#FFFFFF" stroke="#000000" stroke-width="4.948" stroke-miterlimit="10" width="277.8" height="277.8"/>
<g>
	<path fill="none" stroke="#000000" stroke-width="0.9896" stroke-miterlimit="10" d="M142,437l1.7,6.7l-2.8-0.5
		c0,0-0.4,1.1-1.3,3.3"/>
	<line fill="none" stroke="#000000" stroke-width="0.9896" stroke-miterlimit="10" x1="137.6" y1="434.2" x2="134.2" y2="426.5"/>
	<line fill="none" stroke="#000000" stroke-width="0.9896" stroke-miterlimit="10" x1="135" y1="434.8" x2="131.8" y2="427.4"/>
	<line fill="none" stroke="#000000" stroke-width="0.9896" stroke-miterlimit="10" x1="132.5" y1="436.6" x2="129.2" y2="429.3"/>
	<path d="M138.3,438.2c0.1,0.3-0.4,0.7-1,0.8c-0.6,0.1-1.1,0-1.2-0.4c-0.1-0.3,0.5-0.3,1.1-0.4C137.7,438.2,138.2,437.9,138.3,438.2
		z"/>
	<g>
		<polyline fill="none" stroke="#000000" stroke-width="0.9896" stroke-miterlimit="10" points="104.6,503.3 104.6,438.9 
			110.5,438.9 110.5,466.3 		"/>
	</g>
	<polyline fill="none" stroke="#000000" stroke-width="0.9896" stroke-miterlimit="10" points="104.6,474.9 139.2,474.9 
		139.2,503.3 	"/>
	<g>
		<polyline fill="none" stroke="#000000" stroke-width="0.9896" stroke-miterlimit="10" points="162.8,461.2 133.5,461.2 133.5,455 
			183.6,455 183.6,503.3 158.5,503.3 		"/>
	</g>
	<polyline fill="none" stroke="#000000" stroke-width="0.9896" stroke-miterlimit="10" points="131.3,464.8 146.8,465.1 
		161.1,494.3 154,497.7 142.9,474.9 	"/>
	<polyline fill="none" stroke="#000000" stroke-width="0.9896" stroke-miterlimit="10" points="134.2,448.4 150.2,448.7 
		151.5,454.8 133.5,455 121.8,448 	"/>
	<line fill="none" stroke="#000000" stroke-width="0.9896" stroke-miterlimit="10" x1="150.2" y1="450.7" x2="155.6" y2="446.7"/>
	<line fill="none" stroke="#000000" stroke-width="0.9896" stroke-miterlimit="10" x1="152.3" y1="452.5" x2="157.7" y2="448.4"/>
	<line fill="none" stroke="#000000" stroke-width="0.9896" stroke-miterlimit="10" x1="154.3" y1="454.4" x2="159.7" y2="450.5"/>
	<line fill="none" stroke="#000000" stroke-width="0.9896" stroke-miterlimit="10" x1="149" y1="445.2" x2="152.2" y2="448"/>
	<line fill="none" stroke="#000000" stroke-width="0.9896" stroke-miterlimit="10" x1="157.3" y1="452.2" x2="159.9" y2="454.6"/>
	<path fill="none" stroke="#000000" stroke-width="0.9896" stroke-miterlimit="10" d="M199.3,338.5c1.3-0.5,2.9-0.8,4.5-0.8
		c7.1,0,12.9,5.8,12.9,12.9c0,7.1-5.8,12.9-12.9,12.9s-12.9-5.8-12.9-12.9c0-2.6,0.7-4.9,2-7"/>
	<polyline fill="none" stroke="#000000" stroke-width="0.9896" stroke-miterlimit="10" points="203.8,342.1 203.8,351 207.3,345.5 	
		"/>
	<polyline fill="none" stroke="#000000" stroke-width="0.9896" stroke-miterlimit="10" points="166.1,493.5 167.6,496.7 
		156.7,501.9 	"/>
</g>
<rect x="299.5" y="282" fill="#FFFFFF" stroke="#000000" stroke-width="4.948" stroke-miterlimit="10" width="277.8" height="277.8"/>
<g>
	<g>
		<polyline fill="none" stroke="#000000" stroke-width="0.9896" stroke-miterlimit="10" points="384.3,504.1 384.3,439.8 
			390.2,439.8 390.2,467.2 		"/>
	</g>
	<polyline fill="none" stroke="#000000" stroke-width="0.9896" stroke-miterlimit="10" points="416.5,475.8 422.3,475.8 
		422.3,504.1 	"/>
	<line fill="none" stroke="#000000" stroke-width="0.9896" stroke-miterlimit="10" x1="384.3" y1="475.8" x2="406.8" y2="475.8"/>
	<g>
		<polyline fill="none" stroke="#000000" stroke-width="0.9896" stroke-miterlimit="10" points="446,462.1 416.1,462.1 416.1,455.9 
			466.8,455.9 466.8,504.1 441.8,504.1 		"/>
	</g>
	<polyline fill="none" stroke="#000000" stroke-width="0.9896" stroke-miterlimit="10" points="416.6,465.6 430.1,466 444.3,495.1 
		437.3,498.6 426.1,475.8 	"/>
	<path fill="none" stroke="#000000" stroke-width="0.9896" stroke-miterlimit="10" d="M475.2,339.7c1.3-0.5,2.9-0.8,4.5-0.8
		c7.1,0,12.9,5.8,12.9,12.9c0,7.1-5.8,12.9-12.9,12.9c-7.1,0-12.9-5.8-12.9-12.9c0-2.6,0.7-4.9,2-7"/>
	<polyline fill="none" stroke="#000000" stroke-width="0.9896" stroke-miterlimit="10" points="479.7,343.3 479.7,351.2 
		479.7,351.8 484.6,348.6 	"/>
	<polyline fill="none" stroke="#000000" stroke-width="0.9896" stroke-miterlimit="10" points="416.1,455.9 415.9,493.6 
		408.4,493.6 407.7,493.6 407.7,460.4 	"/>
	<line fill="none" stroke="#000000" stroke-width="0.9896" stroke-miterlimit="10" x1="436.9" y1="449.8" x2="441.5" y2="443"/>
	<line fill="none" stroke="#000000" stroke-width="0.9896" stroke-miterlimit="10" x1="435" y1="448.2" x2="439.5" y2="441.4"/>
	<line fill="none" stroke="#000000" stroke-width="0.9896" stroke-miterlimit="10" x1="432.1" y1="446.7" x2="436.7" y2="440.2"/>
	<line fill="none" stroke="#000000" stroke-width="0.9896" stroke-miterlimit="10" x1="430.5" y1="455.9" x2="430.5" y2="452.8"/>
	<line fill="none" stroke="#000000" stroke-width="0.9896" stroke-miterlimit="10" x1="414.7" y1="496" x2="414.7" y2="501"/>
	<line fill="none" stroke="#000000" stroke-width="0.9896" stroke-miterlimit="10" x1="411.9" y1="496" x2="411.9" y2="501"/>
	<line fill="none" stroke="#000000" stroke-width="0.9896" stroke-miterlimit="10" x1="409.3" y1="496" x2="409.3" y2="501"/>
	<polyline fill="none" stroke="#000000" stroke-width="0.9896" stroke-miterlimit="10" points="448.2,494.4 449.5,497.6 
		438.7,502.7 	"/>
</g>
<rect x="21.8" y="559.7" fill="#FFFFFF" stroke="#000000" stroke-width="4.948" stroke-miterlimit="10" width="277.8" height="277.8"/>
<g>
	<g>
		<polyline fill="none" stroke="#000000" stroke-width="0.9896" stroke-miterlimit="10" points="102.2,784.5 102.2,720.2 108,720.2 
			108,747.6 		"/>
	</g>
	<polyline fill="none" stroke="#000000" stroke-width="0.9896" stroke-miterlimit="10" points="102.2,756.1 136.7,756.1 
		136.7,784.5 	"/>
	<g>
		<polyline fill="none" stroke="#000000" stroke-width="0.9896" stroke-miterlimit="10" points="160.3,742.4 131,742.4 131,736.3 
			181.1,736.3 181.1,784.5 156.1,784.5 		"/>
	</g>
	<path fill="none" stroke="#000000" stroke-width="0.9896" stroke-miterlimit="10" d="M189.5,625.7c1.3-0.5,2.9-0.8,4.5-0.8
		c7.1,0,12.9,5.8,12.9,12.9c0,7.1-5.8,12.9-12.9,12.9c-7.1,0-12.9-5.8-12.9-12.9c0-2.6,0.7-4.9,2-7"/>
	<polyline fill="none" stroke="#000000" stroke-width="0.9896" stroke-miterlimit="10" points="194,646.3 194,637.8 198.9,638.7 	
		"/>
</g>
<rect x="299.5" y="559.7" fill="#FFFFFF" stroke="#000000" stroke-width="4.948" stroke-miterlimit="10" width="277.8" height="277.8"/>
<g>
	<polyline fill="none" stroke="#000000" stroke-width="0.9896" stroke-miterlimit="10" points="395,721.5 380.3,676.8 388,674 
		395.7,699.3 	"/>
	<polyline fill="none" stroke="#000000" stroke-width="0.9896" stroke-miterlimit="10" points="413.6,738.6 445,774.1 439.3,780.5 
		414.9,752.3 	"/>
	<polyline fill="none" stroke="#000000" stroke-width="0.9896" stroke-miterlimit="10" points="399,747.7 393.1,769.8 361.9,757.5 
		364.3,749.7 386.3,758 392.3,736.3 	"/>
	<line fill="none" stroke="#000000" stroke-width="0.9896" stroke-miterlimit="10" x1="409.5" y1="697.4" x2="402.2" y2="693.2"/>
	<line fill="none" stroke="#000000" stroke-width="0.9896" stroke-miterlimit="10" x1="407.3" y1="699.7" x2="400" y2="695.5"/>
	<line fill="none" stroke="#000000" stroke-width="0.9896" stroke-miterlimit="10" x1="405.5" y1="702.6" x2="398.3" y2="698.4"/>
	<line fill="none" stroke="#000000" stroke-width="0.9896" stroke-miterlimit="10" x1="444.3" y1="680.6" x2="449.6" y2="677"/>
	<line fill="none" stroke="#000000" stroke-width="0.9896" stroke-miterlimit="10" x1="447" y1="682.4" x2="452.3" y2="678.8"/>
	<line fill="none" stroke="#000000" stroke-width="0.9896" stroke-miterlimit="10" x1="448.8" y1="685.1" x2="454.1" y2="681.5"/>
	<line fill="none" stroke="#000000" stroke-width="0.9896" stroke-miterlimit="10" x1="386.4" y1="671.2" x2="382.5" y2="666.2"/>
	<line fill="none" stroke="#000000" stroke-width="0.9896" stroke-miterlimit="10" x1="383.4" y1="672.1" x2="379.4" y2="667"/>
	<line fill="none" stroke="#000000" stroke-width="0.9896" stroke-miterlimit="10" x1="380.8" y1="674.1" x2="376.8" y2="669.1"/>
	<polyline fill="none" stroke="#000000" stroke-width="0.9896" stroke-miterlimit="10" points="442.5,784.1 451.5,775.1 
		449.5,772.6 	"/>
	<polyline fill="none" stroke="#000000" stroke-width="0.9896" stroke-miterlimit="10" points="359.8,747.7 355.4,760.3 
		359.8,761.6 	"/>
	<line fill="none" stroke="#000000" stroke-width="0.9896" stroke-miterlimit="10" x1="376.8" y1="723.1" x2="350.9" y2="723.7"/>
	<line fill="none" stroke="#000000" stroke-width="0.9896" stroke-miterlimit="10" x1="369.5" y1="727.7" x2="341" y2="728.4"/>
	<line fill="none" stroke="#000000" stroke-width="0.9896" stroke-miterlimit="10" x1="371.7" y1="734.6" x2="357.4" y2="734.8"/>
	<path d="M411.1,702.8c0.1,0.4-0.5,0.1-1.1,0.2c-0.6,0.1-0.9,0.7-1.1,0.3c-0.1-0.4,0.3-0.9,0.9-1C410.4,702.2,411,702.4,411.1,702.8
		z"/>
	<polyline fill="none" stroke="#000000" stroke-width="0.9896" stroke-miterlimit="10" points="419.1,703.6 440.8,682.5 447,688.2 
		415.5,720.1 	"/>
	<path fill="none" stroke="#000000" stroke-width="0.9896" stroke-miterlimit="10" d="M413.6,699.7l2.9,6.3h-2.9
		c0,0,0.2,1.1-0.2,3.4c-0.1,0.6-5.9-0.4-6,0.1c-0.6,2,5.3,3.5,5,3.9c-0.7,1-1.1,2-4.2,1.6"/>
	<line fill="none" stroke="#000000" stroke-width="0.9896" stroke-miterlimit="10" x1="413.6" y1="699.7" x2="415.5" y2="704.1"/>
</g>
</svg>
