<?xml version="1.0" encoding="utf-8"?>
<!-- Generator: Adobe Illustrator 18.1.1, SVG Export Plug-In . SVG Version: 6.00 Build 0)  -->
<svg version="1.1" id="Layer_1" xmlns="http://www.w3.org/2000/svg" xmlns:xlink="http://www.w3.org/1999/xlink" x="0px" y="0px"
	 viewBox="0 0 478.1 337.5" enable-background="new 0 0 478.1 337.5" xml:space="preserve">
<rect x="188.1" y="45.4" display="none" fill="none" stroke="#000000" stroke-miterlimit="10" width="239.3" height="239.3"/>
<g>
	<polygon points="310.5,48.2 310.5,70.2 402.7,70.2 402.7,161 345.2,161.2 345.2,184.2 402.7,184 402.7,284.1 425.7,284.1 
		425.7,48.2 	"/>
	<polygon points="44.7,287.3 71.5,287.1 188.7,69.2 188.7,160.6 143.9,160.6 131.9,183.6 188.7,183.6 188.7,284.7 211.7,284.7 
		211.7,183.6 265.9,183.6 265.9,160.6 211.7,160.6 211.7,70.2 306.1,70.2 306.1,48.2 173.7,48.2 	"/>
</g>
<line fill="none" x1="236.4" y1="159.9" x2="380" y2="159.9"/>
</svg>
