<?xml version="1.0" encoding="utf-8"?>
<!-- Generator: Adobe Illustrator 18.1.1, SVG Export Plug-In . SVG Version: 6.00 Build 0)  -->
<svg version="1.1" id="Calque_1" xmlns="http://www.w3.org/2000/svg" xmlns:xlink="http://www.w3.org/1999/xlink" x="0px" y="0px"
	 viewBox="0 0 595.3 841.9" enable-background="new 0 0 595.3 841.9" xml:space="preserve">
<rect x="19.1" y="2" fill="#FFFFFF" stroke="#000000" stroke-width="4.9613" stroke-miterlimit="10" width="278.5" height="278.5"/>
<rect x="297.6" y="2" fill="#FFFFFF" stroke="#000000" stroke-width="4.9613" stroke-miterlimit="10" width="278.5" height="278.5"/>
<rect x="19.1" y="280.4" fill="#FFFFFF" stroke="#000000" stroke-width="4.9613" stroke-miterlimit="10" width="278.5" height="278.5"/>
<rect x="297.6" y="280.4" fill="#FFFFFF" stroke="#000000" stroke-width="4.9613" stroke-miterlimit="10" width="278.5" height="278.5"/>
<rect x="19.1" y="558.8" fill="#FFFFFF" stroke="#000000" stroke-width="4.9613" stroke-miterlimit="10" width="278.5" height="278.5"/>
<rect x="297.6" y="558.8" fill="#FFFFFF" stroke="#000000" stroke-width="4.9613" stroke-miterlimit="10" width="278.5" height="278.5"/>
<g>
	<polyline fill="none" stroke="#000000" stroke-width="0.9923" stroke-miterlimit="10" points="173,159.2 180.4,169.4 191.8,162.3 
		194.3,166.9 179.2,176.1 165.4,158 	"/>
	<line fill="none" stroke="#000000" stroke-width="0.9923" stroke-miterlimit="10" x1="193.1" y1="162" x2="196.7" y2="160.2"/>
	<line fill="none" stroke="#000000" stroke-width="0.9923" stroke-miterlimit="10" x1="194.3" y1="163.7" x2="197.9" y2="161.9"/>
	<line fill="none" stroke="#000000" stroke-width="0.9923" stroke-miterlimit="10" x1="195.2" y1="165.4" x2="198.8" y2="163.5"/>
	<path fill="none" stroke="#000000" stroke-width="0.9923" stroke-miterlimit="10" d="M180,138.3l2.2,5.2H180c0,0,0.8,7.3-3.6,7.3"
		/>
	<line fill="none" stroke="#000000" stroke-width="0.9923" stroke-miterlimit="10" x1="176.2" y1="137" x2="172.9" y2="132.7"/>
	<line fill="none" stroke="#000000" stroke-width="0.9923" stroke-miterlimit="10" x1="174" y1="138.3" x2="170.6" y2="134.1"/>
	<line fill="none" stroke="#000000" stroke-width="0.9923" stroke-miterlimit="10" x1="171.5" y1="140.2" x2="168.4" y2="135.9"/>
	<ellipse cx="176.9" cy="140" rx="0.7" ry="0.5"/>
	<path fill="none" stroke="#000000" stroke-width="0.9923" stroke-miterlimit="10" d="M179.7,147.5c0,0-1.8-1.1-4.2,0.1"/>
	<polyline fill="none" stroke="#000000" stroke-width="0.9923" stroke-miterlimit="10" points="198.5,176.9 201.1,178.8 
		198.1,182.6 195.1,180.2 	"/>
	<line fill="none" stroke="#000000" stroke-width="0.9923" stroke-miterlimit="10" x1="202.2" y1="180.2" x2="205.5" y2="183.1"/>
	<line fill="none" stroke="#000000" stroke-width="0.9923" stroke-miterlimit="10" x1="201" y1="181.7" x2="204.2" y2="184.7"/>
	<line fill="none" stroke="#000000" stroke-width="0.9923" stroke-miterlimit="10" x1="199.4" y1="183.4" x2="202.8" y2="186.2"/>
	<polyline fill="none" stroke="#000000" stroke-width="0.9923" stroke-miterlimit="10" points="182.7,184.8 192.1,219.4 
		186.4,221.5 178.7,193.6 	"/>
	<polyline fill="none" stroke="#000000" stroke-width="0.9923" stroke-miterlimit="10" points="165.3,181.8 159.4,220.2 
		165.8,221.8 171,188.9 	"/>
	<polyline fill="none" stroke="#000000" stroke-width="0.9923" stroke-miterlimit="10" points="195.7,218 196.3,221.6 187.1,224.2 	
		"/>
	<polyline fill="none" stroke="#000000" stroke-width="0.9923" stroke-miterlimit="10" points="170.1,221.9 169.7,225.4 
		159.7,223.8 	"/>
	<polyline fill="none" stroke="#000000" stroke-width="0.9923" stroke-miterlimit="10" points="191.4,170.1 190.2,181.6 
		199.2,174.3 	"/>
	<path fill="none" stroke="#000000" stroke-width="0.9923" stroke-miterlimit="10" d="M192.1,160.3c0,0,0.8-3.5,4.8-4.8"/>
	<polyline fill="none" stroke="#000000" stroke-width="0.9923" stroke-miterlimit="10" points="197.9,156.4 202.5,160.6 
		203.3,155.1 	"/>
	<line fill="none" stroke="#000000" stroke-width="0.9923" stroke-miterlimit="10" x1="241.5" y1="198.4" x2="244.4" y2="202.7"/>
	<polyline fill="none" stroke="#000000" stroke-width="0.9923" stroke-miterlimit="10" points="244.3,198.4 246.9,202.7 
		253.4,206.6 246.6,208.6 	"/>
	<circle cx="245.7" cy="204.8" r="0.5"/>
	<polyline fill="none" stroke="#000000" stroke-width="0.9923" stroke-miterlimit="10" points="245.2,212.7 246.5,220.3 
		248.7,219.8 249.1,221.9 246.5,222.6 	"/>
	<polyline fill="none" stroke="#000000" stroke-width="0.9923" stroke-miterlimit="10" points="241.2,212.6 239.8,220.8 242,221.4 
		241.5,223.5 239.1,223 	"/>
	<polyline fill="none" stroke="#000000" stroke-width="0.9923" stroke-miterlimit="10" points="228.6,213.1 228.9,220.9 
		231.1,220.8 231.2,222.8 228.6,223.1 	"/>
	<polyline fill="none" stroke="#000000" stroke-width="0.9923" stroke-miterlimit="10" points="224.6,212.5 222.1,220.3 
		224.1,221.3 223.5,223.3 220.9,222.5 	"/>
	<polyline fill="none" stroke="#000000" stroke-width="0.9923" stroke-miterlimit="10" points="221,204.4 216.6,206.6 221.3,206.4 	
		"/>
	<line fill="none" stroke="#000000" stroke-width="0.9923" stroke-miterlimit="10" x1="204.4" y1="180.5" x2="238.7" y2="204.1"/>
	<path fill="none" stroke="#000000" stroke-width="0.9923" stroke-miterlimit="10" d="M240.8,204.7c0,0,0.1,3.5,2.8,5.3"/>
	<path fill="none" stroke="#000000" stroke-width="0.9923" stroke-miterlimit="10" d="M82.8,158.8c0.3,0.1,0.6,0.3,0.9,0.6
		c0.5,0.5,0.8,1.2,0.8,1.9c0,1.5-1.2,2.8-2.8,2.8c-1.6,0-2.8-1.2-2.8-2.8c0-0.7,0.3-1.4,0.7-1.8"/>
	<polyline fill="none" stroke="#000000" stroke-width="0.9923" stroke-miterlimit="10" points="36.6,209.8 36.6,107.4 91.1,107.4 
		91.1,209 	"/>
	<polyline fill="none" stroke="#000000" stroke-width="0.9923" stroke-miterlimit="10" points="32.7,220.3 32.7,212.8 94.9,212.8 
		94.9,220.2 	"/>
	<line fill="none" stroke="#000000" stroke-width="0.9923" stroke-miterlimit="10" x1="113.1" y1="220.3" x2="113.1" y2="89.7"/>
</g>
<g>
	<polyline fill="none" stroke="#000000" stroke-width="0.9923" stroke-miterlimit="10" points="422.2,158.9 429.5,167.5 
		439.2,157.6 441.6,162.2 428.5,175.7 414.7,157.6 	"/>
	<line fill="none" stroke="#000000" stroke-width="0.9923" stroke-miterlimit="10" x1="440.4" y1="157.3" x2="444.2" y2="155.6"/>
	<line fill="none" stroke="#000000" stroke-width="0.9923" stroke-miterlimit="10" x1="441.6" y1="159.1" x2="445.4" y2="157.2"/>
	<line fill="none" stroke="#000000" stroke-width="0.9923" stroke-miterlimit="10" x1="442.6" y1="160.7" x2="446.2" y2="158.9"/>
	<path fill="none" stroke="#000000" stroke-width="0.9923" stroke-miterlimit="10" d="M433.2,141.1l1,5.6l-2.1-0.5
		c0,0-1,7.3-5.2,6.2"/>
	<line fill="none" stroke="#000000" stroke-width="0.9923" stroke-miterlimit="10" x1="429.6" y1="139.2" x2="427.4" y2="134.2"/>
	<line fill="none" stroke="#000000" stroke-width="0.9923" stroke-miterlimit="10" x1="427.2" y1="139.8" x2="424.9" y2="135"/>
	<line fill="none" stroke="#000000" stroke-width="0.9923" stroke-miterlimit="10" x1="424.4" y1="141.2" x2="422.2" y2="136.2"/>
	<ellipse transform="matrix(-0.234 0.9722 -0.9722 -0.234 668.2926 -242.0062)" cx="429.5" cy="142.3" rx="0.5" ry="0.7"/>
	<path fill="none" stroke="#000000" stroke-width="0.9923" stroke-miterlimit="10" d="M430.5,150.2c0,0,0.2-0.2-2.1-0.2"/>
	<polyline fill="none" stroke="#000000" stroke-width="0.9923" stroke-miterlimit="10" points="409.3,171.7 393.7,185.1 
		390.9,181.2 407.8,165.6 	"/>
	<line fill="none" stroke="#000000" stroke-width="0.9923" stroke-miterlimit="10" x1="392.1" y1="185.8" x2="388.4" y2="188.1"/>
	<line fill="none" stroke="#000000" stroke-width="0.9923" stroke-miterlimit="10" x1="391" y1="184.3" x2="387.3" y2="186.5"/>
	<line fill="none" stroke="#000000" stroke-width="0.9923" stroke-miterlimit="10" x1="389.9" y1="182.2" x2="386.1" y2="184.8"/>
	<polyline fill="none" stroke="#000000" stroke-width="0.9923" stroke-miterlimit="10" points="429.7,185 449.5,215.1 444.8,218.6 
		428.7,194.6 	"/>
	<polyline fill="none" stroke="#000000" stroke-width="0.9923" stroke-miterlimit="10" points="414.9,181.6 411.7,220.2 
		418.2,221.3 421.1,188.1 	"/>
	<polyline fill="none" stroke="#000000" stroke-width="0.9923" stroke-miterlimit="10" points="452.4,212.6 454.3,215.7 446.3,221 	
		"/>
	<polyline fill="none" stroke="#000000" stroke-width="0.9923" stroke-miterlimit="10" points="422.5,221.1 422.2,224.8 
		412.1,223.8 	"/>
	<polyline fill="none" stroke="#000000" stroke-width="0.9923" stroke-miterlimit="10" points="438.8,165.5 437.6,177 446.7,169.5 	
		"/>
	<path fill="none" stroke="#000000" stroke-width="0.9923" stroke-miterlimit="10" d="M439.5,155.7c0,0,0.8-3.5,4.8-4.8"/>
	<polyline fill="none" stroke="#000000" stroke-width="0.9923" stroke-miterlimit="10" points="445.4,151.6 449.9,156 450.7,150.5 	
		"/>
	<line fill="none" stroke="#000000" stroke-width="0.9923" stroke-miterlimit="10" x1="347.5" y1="199.4" x2="350.5" y2="203.4"/>
	<polyline fill="none" stroke="#000000" stroke-width="0.9923" stroke-miterlimit="10" points="350.4,199.4 353.1,203.4 
		359.6,207.5 352.8,209.4 	"/>
	<circle cx="351.9" cy="205.7" r="0.5"/>
	<polyline fill="none" stroke="#000000" stroke-width="0.9923" stroke-miterlimit="10" points="332.5,208.5 330,200.6 332,199.9 
		331.4,197.6 328.9,198.4 	"/>
	<line fill="none" stroke="#000000" stroke-width="0.9923" stroke-miterlimit="10" x1="387.4" y1="181.5" x2="354.1" y2="200"/>
	<path fill="none" stroke="#000000" stroke-width="0.9923" stroke-miterlimit="10" d="M346.9,205.5c0,0,0.1,3.5,2.8,5.3"/>
	<polyline fill="none" stroke="#000000" stroke-width="0.9923" stroke-miterlimit="10" points="351,214 351,222.2 353.3,222.2 
		353.3,224.3 350.8,224.3 	"/>
	<polyline fill="none" stroke="#000000" stroke-width="0.9923" stroke-miterlimit="10" points="347.7,214.8 347.7,223 350.2,223 
		350.2,224.9 347.5,224.9 	"/>
	<polyline fill="none" stroke="#000000" stroke-width="0.9923" stroke-miterlimit="10" points="336.4,214 336.4,222.2 338.7,222.2 
		338.7,224.3 336.3,224.3 	"/>
	<path fill="none" stroke="#000000" stroke-width="0.9923" stroke-miterlimit="10" d="M324.8,209.4"/>
	<g>
		<g>
			<path fill="none" stroke="#000000" stroke-width="0.9923" stroke-miterlimit="10" d="M333.7,211.4c-0.3-0.1-0.6-0.2-0.9-0.3"/>
			<path fill="none" stroke="#000000" stroke-width="0.9923" stroke-miterlimit="10" stroke-dasharray="1.5802,1.5802" d="
				M331.2,210.8c-1.7-0.2-3.7,0.2-5.3,1.4"/>
			<path fill="none" stroke="#000000" stroke-width="0.9923" stroke-miterlimit="10" d="M325.4,212.7c-0.2,0.2-0.5,0.5-0.7,0.7"/>
		</g>
	</g>
	<path fill="none" stroke="#000000" stroke-width="0.9923" stroke-miterlimit="10" d="M322.5,224v-12.3c0,0,0-2.1-1-2.1
		c-1.1,0-1,2-1,2V224"/>
	<path fill="none" stroke="#000000" stroke-width="0.9923" stroke-miterlimit="10" d="M314.2,224v-12.3c0,0,0-2.1-1-2.1
		c-1.1,0-1,2-1,2V224"/>
	<path fill="none" stroke="#000000" stroke-width="0.9923" stroke-miterlimit="10" d="M318.3,224v-12.3c0,0,0-2.1-1-2.1
		c-1.1,0-1,2-1,2V224"/>
	<polyline fill="none" stroke="#000000" stroke-width="0.9923" stroke-miterlimit="10" points="310.2,207 324.7,207 324.7,204 
		312.3,204 	"/>
	<line fill="none" stroke="#000000" stroke-width="0.9923" stroke-miterlimit="10" x1="311.4" y1="225.1" x2="323.2" y2="225.1"/>
	<line fill="none" stroke="#000000" stroke-width="0.9923" stroke-miterlimit="10" x1="397.4" y1="124.5" x2="397.4" y2="166.4"/>
	<line fill="none" stroke="#000000" stroke-width="0.9923" stroke-miterlimit="10" x1="401.3" y1="124.5" x2="401.3" y2="158.1"/>
	<line fill="none" stroke="#000000" stroke-width="0.9923" stroke-miterlimit="10" x1="397.4" y1="191.3" x2="397.4" y2="215.7"/>
	<line fill="none" stroke="#000000" stroke-width="0.9923" stroke-miterlimit="10" x1="401.3" y1="186.5" x2="401.3" y2="215.7"/>
	<path fill="none" stroke="#000000" stroke-width="0.9923" stroke-miterlimit="10" d="M401,105.6c0.6,0.3,1.2,0.6,1.5,1.1
		c0.9,0.9,1.5,2.1,1.5,3.6c0,2.8-2.2,5.1-5.1,5.1s-5.1-2.2-5.1-5.1c0-1.3,0.5-2.4,1.4-3.5"/>
	<path fill="none" stroke="#000000" stroke-width="0.9923" stroke-miterlimit="10" d="M395.2,100.8c-0.8-0.9-1.3-2-1.3-3.4
		c0-1.4,0.5-2.4,1.4-3.5"/>
	<path fill="none" stroke="#000000" stroke-width="0.9923" stroke-miterlimit="10" d="M401,92.6c0.6,0.3,1.2,0.6,1.5,1.1
		c0.9,0.9,1.5,2.1,1.5,3.6c0,2.2-1.5,4.3-3.7,4.9"/>
	<path fill="none" stroke="#000000" stroke-width="0.9923" stroke-miterlimit="10" d="M401,80c0.6,0.3,1.2,0.6,1.5,1.1
		c0.9,0.9,1.5,2.1,1.5,3.6c0,2.8-2.2,5.1-5.1,5.1s-5.1-2.2-5.1-5.1c0-1.3,0.5-2.4,1.4-3.5"/>
	<line fill="none" stroke="#000000" stroke-width="0.9923" stroke-miterlimit="10" x1="399.5" y1="117.2" x2="399.5" y2="119.6"/>
	<line fill="none" stroke="#000000" stroke-width="0.9923" stroke-miterlimit="10" x1="403.3" y1="116.1" x2="404.8" y2="118.5"/>
	<line fill="none" stroke="#000000" stroke-width="0.9923" stroke-miterlimit="10" x1="406.1" y1="112.1" x2="408.4" y2="113.1"/>
	<line fill="none" stroke="#000000" stroke-width="0.9923" stroke-miterlimit="10" x1="406.1" y1="106.6" x2="408.4" y2="105.6"/>
	<line fill="none" stroke="#000000" stroke-width="0.9923" stroke-miterlimit="10" x1="402.8" y1="103.6" x2="404" y2="101.6"/>
	<line fill="none" stroke="#000000" stroke-width="0.9923" stroke-miterlimit="10" x1="397.9" y1="103.6" x2="397.7" y2="101.2"/>
	<line fill="none" stroke="#000000" stroke-width="0.9923" stroke-miterlimit="10" x1="393.2" y1="105.6" x2="391.5" y2="104.4"/>
	<line fill="none" stroke="#000000" stroke-width="0.9923" stroke-miterlimit="10" x1="391.5" y1="110.6" x2="389.3" y2="110.6"/>
	<line fill="none" stroke="#000000" stroke-width="0.9923" stroke-miterlimit="10" x1="393.9" y1="116.1" x2="392.3" y2="117.7"/>
	<path fill="none" stroke="#000000" stroke-width="0.9923" stroke-miterlimit="10" d="M390.9,101.6c0,0,0-17.6,0-19.7
		c0-2.1,1.7-6.8,7.4-6.8s8.2,2.6,8.2,6.3s0,20.1,0,20.1"/>
	<line fill="none" stroke="#000000" stroke-width="0.9923" stroke-miterlimit="10" x1="427.8" y1="222.7" x2="433.7" y2="229"/>
	<path fill="none" stroke="#000000" stroke-width="0.9923" stroke-miterlimit="10" d="M494.3,195.9c0,3.4-3.2,6.1-7.2,6.1
		s-7.2-2.6-7.2-6.1c0-1.6,1.4-3.2,2.6-4.3"/>
	<path fill="none" stroke="#000000" stroke-width="0.9923" stroke-miterlimit="10" d="M548.2,195.8c0,3.4-3.2,6.1-7.2,6.1
		c-3.9,0-7.2-2.6-7.2-6.1c0-1.6,0.8-3.2,2-4.3"/>
	<polyline fill="none" stroke="#000000" stroke-width="0.9923" stroke-miterlimit="10" points="501.7,206.6 501.7,213.3 
		527.2,213.3 	"/>
	<path fill="none" stroke="#000000" stroke-width="0.9923" stroke-miterlimit="10" d="M550,202.5c-5.5,2.2-6.5,17.4-6.5,17.4h-58.6
		c0,0-0.9-15.2-6.5-17.4"/>
	<path fill="none" stroke="#000000" stroke-width="0.9923" stroke-miterlimit="10" d="M476.5,205.2c0,0-1.9-0.9-4.1,0.7
		c-3.6,2.5-4.6,21.7-0.5,23.8c2.5,1.3,4.6,0.5,4.6,0.5"/>
	<path fill="none" stroke="#000000" stroke-width="0.9923" stroke-miterlimit="10" d="M551.7,205.2c0,0,1.9-0.9,4.1,0.7
		c3.6,2.5,4.7,21.7,0.5,23.8c-2.5,1.3-4.6,0.5-4.6,0.5"/>
	<line fill="none" stroke="#000000" stroke-width="0.9923" stroke-miterlimit="10" x1="482.9" y1="185.1" x2="544" y2="185.1"/>
	<line fill="none" stroke="#000000" stroke-width="0.9923" stroke-miterlimit="10" x1="494.3" y1="185.1" x2="518" y2="180.5"/>
	<line fill="none" stroke="#000000" stroke-width="0.9923" stroke-miterlimit="10" x1="513.4" y1="184.9" x2="533.8" y2="180.5"/>
	<line fill="none" stroke="#000000" stroke-width="0.9923" stroke-miterlimit="10" x1="488.3" y1="161.4" x2="535.1" y2="161.4"/>
	<line fill="none" stroke="#000000" stroke-width="0.9923" stroke-miterlimit="10" x1="537.5" y1="161.4" x2="539.8" y2="172.1"/>
	<line fill="none" stroke="#000000" stroke-width="0.9923" stroke-miterlimit="10" x1="486.9" y1="161.9" x2="481.6" y2="184.9"/>
	<g>
		<path d="M481.3,132.5l-2.3,0.3l-0.1-0.8l5.7-0.8l0.1,0.8l-2.3,0.3l1,6.9l-1,0.1L481.3,132.5z"/>
		<path d="M486.3,130.9l0.6,4.7c0.2,1.6,1.1,2.2,2,2.1c1.1-0.2,1.7-1,1.5-2.6l-0.6-4.7l1-0.1l0.6,4.5c0.3,2.3-0.8,3.5-2.4,3.7
			c-1.5,0.2-2.9-0.5-3.2-2.9l-0.6-4.7L486.3,130.9z M488.4,129l1.4,1.1l-0.8,0.1l-0.8-0.7l0,0l-0.6,0.9l-0.8,0.1l1-1.5L488.4,129z"
			/>
		<path d="M493.8,129.9l0.6,4.6c0.2,1.6,1.1,2.2,2,2.1c1.1-0.2,1.7-1,1.5-2.6l-0.6-4.6l1-0.1l0.6,4.5c0.3,2.3-0.8,3.5-2.4,3.7
			c-1.5,0.2-2.9-0.5-3.2-2.9l-0.6-4.7L493.8,129.9z M495.7,127.9l1.4,1.1l-0.8,0.1l-0.8-0.7l0,0l-0.6,0.9l-0.8,0.1l1-1.5
			L495.7,127.9L495.7,127.9z"/>
		<path d="M501.2,128.9l0.6,4.7c0.2,1.6,1.1,2.2,2,2.1c1.1-0.2,1.7-1,1.5-2.6l-0.6-4.7l1-0.1l0.6,4.5c0.3,2.3-0.8,3.5-2.4,3.7
			c-1.5,0.2-2.9-0.5-3.2-2.9l-0.6-4.6L501.2,128.9z M503.2,126.7l1.4,1.1l-0.8,0.1l-0.8-0.7l0,0l-0.6,0.9l-0.8,0.1l1-1.5
			L503.2,126.7z"/>
		<path d="M508.6,127.9l0.6,4.7c0.2,1.6,1.1,2.2,2,2.1c1.1-0.2,1.7-1,1.5-2.6l-0.6-4.7l1-0.1l0.6,4.5c0.3,2.3-0.8,3.5-2.4,3.7
			c-1.5,0.2-2.9-0.5-3.2-2.9l-0.6-4.7L508.6,127.9z M510.7,125.7l1.4,1.1l-0.8,0.1l-0.8-0.7l0,0l-0.6,0.9l-0.8,0.1l1-1.5
			L510.7,125.7z"/>
		<path d="M516,126.6l0.6,4.7c0.2,1.6,1.1,2.2,2,2.1c1.1-0.2,1.7-1,1.5-2.6l-0.6-4.7l1-0.1l0.6,4.5c0.3,2.3-0.8,3.5-2.4,3.7
			c-1.5,0.2-2.9-0.5-3.2-2.9l-0.6-4.7L516,126.6z M518,124.7l1.4,1.1l-0.8,0.1l-0.8-0.7l0,0l-0.6,0.9l-0.8,0.1l1-1.5L518,124.7z"/>
		<path d="M523.3,125.7l0.6,4.7c0.2,1.6,1.1,2.2,2,2.1c1.1-0.2,1.7-1,1.5-2.6l-0.6-4.7l1-0.1l0.6,4.5c0.3,2.3-0.8,3.5-2.4,3.7
			c-1.5,0.2-2.9-0.5-3.2-2.9l-0.6-4.7L523.3,125.7z M525.4,123.7l1.4,1.1l-0.8,0.1l-0.8-0.7l0,0l-0.6,0.9l-0.8,0.1l1-1.5
			L525.4,123.7z"/>
		<path d="M530.7,124.7l0.6,4.7c0.2,1.6,1.1,2.2,2,2.1c1.1-0.2,1.7-1,1.5-2.6l-0.6-4.6l1-0.1l0.6,4.5c0.3,2.3-0.8,3.5-2.4,3.7
			c-1.5,0.2-2.9-0.5-3.2-2.9l-0.6-4.7L530.7,124.7z M532.8,122.7l1.4,1.1l-0.8,0.1l-0.8-0.7l0,0l-0.6,0.9l-0.8,0.1l1-1.5H532.8z"/>
		<path d="M538.3,123.6l0.6,4.6c0.2,1.6,1.1,2.2,2,2.1c1.1-0.2,1.7-1,1.5-2.6l-0.6-4.7l1-0.1l0.6,4.5c0.3,2.3-0.8,3.5-2.4,3.7
			c-1.5,0.2-2.9-0.5-3.2-2.9l-0.6-4.6L538.3,123.6z M540.2,121.7l1.4,1.1l-0.8,0.1l-0.8-0.7l0,0l-0.6,0.9l-0.8,0.1l1-1.5H540.2z"/>
		<path d="M545.6,122.7l0.6,4.7c0.2,1.6,1.1,2.2,2,2.1c1.1-0.2,1.7-1,1.5-2.6l-0.6-4.7l1-0.1l0.6,4.5c0.3,2.3-0.8,3.5-2.4,3.7
			c-1.5,0.2-2.9-0.5-3.2-2.9l-0.6-4.6L545.6,122.7z M547.6,120.5l1.4,1.1l-0.8,0.1l-0.8-0.7l0,0l-0.6,0.9L546,122l1-1.5H547.6z"/>
		<path d="M552.9,121.6l0.6,4.7c0.2,1.6,1.1,2.2,2,2.1c1.1-0.2,1.7-1,1.5-2.6l-0.6-4.6l1-0.1l0.6,4.5c0.3,2.3-0.8,3.5-2.4,3.7
			c-1.5,0.2-2.9-0.5-3.2-2.9l-0.6-4.6L552.9,121.6z M555.1,119.6l1.4,1.1l-0.8,0.1l-0.8-0.7l0,0l-0.6,0.9l-0.8,0.1l1-1.5H555.1z"/>
		<path d="M560.9,121.4l-2.3,0.3l-0.1-0.8l5.7-0.8l0.1,0.8l-2.3,0.3l1,6.9l-1,0.1L560.9,121.4z"/>
	</g>
</g>
<g>
	<polyline fill="none" stroke="#000000" stroke-width="0.9923" stroke-miterlimit="10" points="98.3,470.6 75.8,498.9 71,495.4 
		88.8,472.7 	"/>
	<polyline fill="none" stroke="#000000" stroke-width="0.9923" stroke-miterlimit="10" points="90.2,455 55.8,473.1 58.5,479 
		88,463.7 	"/>
	<polyline fill="none" stroke="#000000" stroke-width="0.9923" stroke-miterlimit="10" points="79.1,500.8 76.7,503.4 69.2,497.6 	
		"/>
	<polyline fill="none" stroke="#000000" stroke-width="0.9923" stroke-miterlimit="10" points="60.9,482.7 57.7,484.4 53.2,475.3 	
		"/>
	<polyline fill="none" stroke="#000000" stroke-width="0.9923" stroke-miterlimit="10" points="193.3,490.2 189.5,487 191.7,491.3 	
		"/>
	<line fill="none" stroke="#000000" stroke-width="0.9923" stroke-miterlimit="10" x1="160.5" y1="471.1" x2="206.5" y2="487.4"/>
	<polyline fill="none" stroke="#000000" stroke-width="0.9923" stroke-miterlimit="10" points="114.2,450.7 118.2,460.9 
		130.3,454.6 131.3,459.5 114.5,468.4 106.9,447 	"/>
	<line fill="none" stroke="#000000" stroke-width="0.9923" stroke-miterlimit="10" x1="131.5" y1="454.7" x2="135.7" y2="453.9"/>
	<line fill="none" stroke="#000000" stroke-width="0.9923" stroke-miterlimit="10" x1="132.1" y1="456.6" x2="136.3" y2="456.1"/>
	<line fill="none" stroke="#000000" stroke-width="0.9923" stroke-miterlimit="10" x1="132.5" y1="458.4" x2="136.7" y2="457.8"/>
	<line fill="none" stroke="#000000" stroke-width="0.9923" stroke-miterlimit="10" x1="126.9" y1="433.9" x2="126.3" y2="428.5"/>
	<line fill="none" stroke="#000000" stroke-width="0.9923" stroke-miterlimit="10" x1="124.3" y1="433.7" x2="123.7" y2="428.5"/>
	<line fill="none" stroke="#000000" stroke-width="0.9923" stroke-miterlimit="10" x1="121.4" y1="434.2" x2="120.8" y2="429"/>
	<ellipse transform="matrix(-0.5232 0.8522 -0.8522 -0.5232 564.2088 558.0469)" cx="126" cy="436.9" rx="0.5" ry="0.7"/>
	<polyline fill="none" stroke="#000000" stroke-width="0.9923" stroke-miterlimit="10" points="127.6,461.8 122.9,472.4 
		133.8,468.2 	"/>
	<path fill="none" stroke="#000000" stroke-width="0.9923" stroke-miterlimit="10" d="M131.3,452.7c0,0,1.7-3.1,6-3.1"/>
	<polyline fill="none" stroke="#000000" stroke-width="0.9923" stroke-miterlimit="10" points="138,450.7 141,456.2 143.5,451.2 	
		"/>
	<line fill="none" stroke="#000000" stroke-width="0.9923" stroke-miterlimit="10" x1="210.5" y1="480.7" x2="213.4" y2="484.8"/>
	<circle cx="214.7" cy="486.9" r="0.5"/>
	<path fill="none" stroke="#000000" stroke-width="0.9923" stroke-miterlimit="10" d="M209.1,487.1c0,0,0.9,3.4,3.9,4.5"/>
	<polyline fill="none" stroke="#000000" stroke-width="0.9923" stroke-miterlimit="10" points="212.1,495.9 216.4,502.8 
		218.2,501.7 219.4,503.4 217.3,504.8 	"/>
	<polyline fill="none" stroke="#000000" stroke-width="0.9923" stroke-miterlimit="10" points="208.5,498.1 212.8,505.2 
		214.7,503.9 215.8,505.7 213.8,507 	"/>
	<polyline fill="none" stroke="#000000" stroke-width="0.9923" stroke-miterlimit="10" points="193.7,496.7 192.3,504.9 
		194.6,505.3 194.3,507.2 191.8,506.8 	"/>
	<polyline fill="none" stroke="#000000" stroke-width="0.9923" stroke-miterlimit="10" points="196.8,496.6 196.7,504.9 199,504.9 
		199,506.9 196.5,506.8 	"/>
	<polyline fill="none" stroke="#000000" stroke-width="0.9923" stroke-miterlimit="10" points="213.2,480.7 215.9,484.8 
		222.8,486.4 218.1,489.2 222,489.9 	"/>
	<polyline fill="none" stroke="#000000" stroke-width="0.9923" stroke-miterlimit="10" points="285,468.1 283.7,473 278,476.8 
		283.1,477.8 279.8,479.7 	"/>
	<polyline fill="none" stroke="#000000" stroke-width="0.9923" stroke-miterlimit="10" points="140.8,461.3 155.9,469.4 
		153.1,473.5 135.7,465 	"/>
	<line fill="none" stroke="#000000" stroke-width="0.9923" stroke-miterlimit="10" x1="157" y1="470.8" x2="160.5" y2="473.4"/>
	<line fill="none" stroke="#000000" stroke-width="0.9923" stroke-miterlimit="10" x1="156" y1="472.4" x2="159.4" y2="474.9"/>
	<line fill="none" stroke="#000000" stroke-width="0.9923" stroke-miterlimit="10" x1="154.6" y1="474.1" x2="158.2" y2="476.7"/>
	<path fill="none" stroke="#000000" stroke-width="0.9923" stroke-miterlimit="10" d="M128.8,436.7l0.7,6l-2.3-0.7
		c0,0-0.3,1.2-0.8,2.4c-0.2,0.4-1.9-2.5-3.3-0.1c-1.1,2.1,2.1,2.1,1.9,2.4c-0.8,1.2-2.1,2.6-3.6,2.1"/>
	<line fill="none" stroke="#000000" stroke-width="0.9923" stroke-miterlimit="10" x1="288.4" y1="467.4" x2="286.7" y2="472.2"/>
	<circle cx="284.8" cy="474.6" r="0.5"/>
	<path fill="none" stroke="#000000" stroke-width="0.9923" stroke-miterlimit="10" d="M289.5,474.3c0,0,0.2,3.5-2.2,5.6"/>
	<polyline fill="none" stroke="#000000" stroke-width="0.9923" stroke-miterlimit="10" points="286.2,483.3 287,491.3 284.8,491.6 
		285,493.6 287.4,493.4 	"/>
	<polyline fill="none" stroke="#000000" stroke-width="0.9923" stroke-miterlimit="10" points="289.5,483.8 290.2,491.8 287.9,492 
		288.1,494.1 290.6,493.9 	"/>
	<polyline fill="none" stroke="#000000" stroke-width="0.9923" stroke-miterlimit="10" points="104.2,393 99.9,395.1 102.8,399.6 
		106.2,395.8 	"/>
	<polyline fill="none" stroke="#000000" stroke-width="0.9923" stroke-miterlimit="10" points="110.3,393.2 116,399.4 115.5,390.3 	
		"/>
	<polyline fill="none" stroke="#000000" stroke-width="0.9923" stroke-miterlimit="10" points="106.2,387.8 104.6,382.6 
		110.3,385.3 	"/>
	<path fill="none" stroke="#000000" stroke-width="0.9923" stroke-miterlimit="10" d="M116.5,385.7c0.2-0.8,0.9-1.5,1.6-1.7
		c1-0.3,2,0,2.6,0.8l4.2,0.4l-3.6,1.4c0,1.1-0.7,2-1.7,2.3c-0.5,0.2-1.1,0.1-1.5,0"/>
	<path fill="none" stroke="#000000" stroke-width="0.9923" stroke-miterlimit="10" d="M43.3,417c19.3,1.5,43.3-7,52.8-17.4"/>
	<path fill="none" stroke="#000000" stroke-width="0.9923" stroke-linecap="round" stroke-miterlimit="10" d="M43.9,422.5
		c0.1,1,0.1,2.1,0.1,3.5c0,0.8,0,2.9,0,3.6c-0.1,2.5-0.3,3.2-0.6,3.2s-0.5-0.6-0.6-3.2c0-0.7,0-2.8,0-3.6c0-0.9,0-1.6,0-2.3"/>
	<line fill="none" stroke="#000000" stroke-width="0.9923" stroke-miterlimit="10" x1="66.7" y1="455.2" x2="58.9" y2="455.2"/>
	<line fill="none" stroke="#000000" stroke-width="0.9923" stroke-miterlimit="10" x1="64.2" y1="457.4" x2="55.1" y2="457.4"/>
	<line fill="none" stroke="#000000" stroke-width="0.9923" stroke-miterlimit="10" x1="183.6" y1="490.5" x2="175.8" y2="490.5"/>
	<line fill="none" stroke="#000000" stroke-width="0.9923" stroke-miterlimit="10" x1="181" y1="492.8" x2="172" y2="492.8"/>
</g>
<g>
	<polyline fill="none" stroke="#000000" stroke-width="0.9923" stroke-miterlimit="10" points="388.7,440.3 397.6,449.7 
		407.5,441.8 409.9,446.5 396.4,456.4 381.1,439.1 	"/>
	<line fill="none" stroke="#000000" stroke-width="0.9923" stroke-miterlimit="10" x1="408.7" y1="441.5" x2="412.3" y2="439.8"/>
	<line fill="none" stroke="#000000" stroke-width="0.9923" stroke-miterlimit="10" x1="409.9" y1="443.4" x2="413.6" y2="441.4"/>
	<line fill="none" stroke="#000000" stroke-width="0.9923" stroke-miterlimit="10" x1="410.9" y1="445" x2="414.6" y2="443.1"/>
	<polyline fill="none" stroke="#000000" stroke-width="0.9923" stroke-miterlimit="10" points="414.2,458.6 416.8,460.5 
		413.7,464.4 410.7,462 	"/>
	<line fill="none" stroke="#000000" stroke-width="0.9923" stroke-miterlimit="10" x1="417.9" y1="462" x2="421.1" y2="464.9"/>
	<line fill="none" stroke="#000000" stroke-width="0.9923" stroke-miterlimit="10" x1="416.7" y1="463.5" x2="419.9" y2="466.4"/>
	<line fill="none" stroke="#000000" stroke-width="0.9923" stroke-miterlimit="10" x1="415.1" y1="465.1" x2="418.5" y2="468"/>
	<polyline fill="none" stroke="#000000" stroke-width="0.9923" stroke-miterlimit="10" points="398.3,467.3 399.6,503.2 
		393.5,503.7 392.5,474.8 	"/>
	<polyline fill="none" stroke="#000000" stroke-width="0.9923" stroke-miterlimit="10" points="381,463.7 375,502.1 381.5,503.4 
		386.8,470.5 	"/>
	<polyline fill="none" stroke="#000000" stroke-width="0.9923" stroke-miterlimit="10" points="403.2,502.5 403.2,506.2 
		393.7,506.6 	"/>
	<polyline fill="none" stroke="#000000" stroke-width="0.9923" stroke-miterlimit="10" points="385.8,503.5 385.3,507.2 
		375.3,505.6 	"/>
	<polyline fill="none" stroke="#000000" stroke-width="0.9923" stroke-miterlimit="10" points="407,451.9 406,463.4 415,456.1 	"/>
	<path fill="none" stroke="#000000" stroke-width="0.9923" stroke-miterlimit="10" d="M407.8,439.9c0,0,0.8-3.5,4.8-4.8"/>
	<polyline fill="none" stroke="#000000" stroke-width="0.9923" stroke-miterlimit="10" points="413.6,435.9 418.2,440.2 
		418.9,434.7 	"/>
	<line fill="none" stroke="#000000" stroke-width="0.9923" stroke-miterlimit="10" x1="457.2" y1="480.2" x2="460" y2="484.4"/>
	<polyline fill="none" stroke="#000000" stroke-width="0.9923" stroke-miterlimit="10" points="459.8,480.2 462.7,484.4 
		469.1,488.4 462.4,490.4 	"/>
	<circle cx="461.5" cy="486.5" r="0.5"/>
	<polyline fill="none" stroke="#000000" stroke-width="0.9923" stroke-miterlimit="10" points="441.8,490 437,488.4 440.6,491.6 	
		"/>
	<line fill="none" stroke="#000000" stroke-width="0.9923" stroke-miterlimit="10" x1="420.1" y1="462.3" x2="454.2" y2="485.9"/>
	<path fill="none" stroke="#000000" stroke-width="0.9923" stroke-miterlimit="10" d="M456.5,486.3c0,0,0.1,3.5,2.8,5.3"/>
	<polyline fill="none" stroke="#000000" stroke-width="0.9923" stroke-miterlimit="10" points="460.2,493.6 460.2,501.8 
		462.5,501.8 462.5,503.8 460,503.8 	"/>
	<polyline fill="none" stroke="#000000" stroke-width="0.9923" stroke-miterlimit="10" points="457.1,494.4 457.1,502.5 
		459.3,502.5 459.3,504.7 456.9,504.7 	"/>
	<polyline fill="none" stroke="#000000" stroke-width="0.9923" stroke-miterlimit="10" points="451.8,504.7 454.1,504.7 
		454.1,502.5 451.9,502.5 451.9,496.3 448.9,494 	"/>
	<polyline fill="none" stroke="#000000" stroke-width="0.9923" stroke-miterlimit="10" points="448.5,505.4 451,505.4 451,503.3 
		448.7,503.3 448.7,497 445.3,494.7 	"/>
	<line fill="none" stroke="#000000" stroke-width="0.9923" stroke-miterlimit="10" x1="443" y1="497.4" x2="443" y2="502.4"/>
	<line fill="none" stroke="#000000" stroke-width="0.9923" stroke-miterlimit="10" x1="403.3" y1="425" x2="402.7" y2="419.5"/>
	<line fill="none" stroke="#000000" stroke-width="0.9923" stroke-miterlimit="10" x1="400.8" y1="424.8" x2="400.1" y2="419.6"/>
	<line fill="none" stroke="#000000" stroke-width="0.9923" stroke-miterlimit="10" x1="397.9" y1="425.4" x2="397.2" y2="420.1"/>
	<ellipse transform="matrix(-0.5077 0.8615 -0.8615 -0.5077 975.2678 298.4565)" cx="402.4" cy="427.9" rx="0.5" ry="0.7"/>
	<path fill="none" stroke="#000000" stroke-width="0.9923" stroke-miterlimit="10" d="M405.6,427.1l0.7,6l-2.3-0.7
		c0,0-0.7,2.1-1.2,3.5c-0.2,0.4-2.3-2.1-2.9-1.1c-0.3,0.7,2.1,2.1,1.9,2.4c-0.8,1.2-2.1,2.6-3.6,2.1"/>
	<line fill="none" stroke="#000000" stroke-width="0.9923" stroke-miterlimit="10" x1="403.6" y1="427.3" x2="401.7" y2="426.1"/>
</g>
<g>
	<polyline fill="none" stroke="#000000" stroke-width="0.9923" stroke-miterlimit="10" points="172.8,779.2 172.5,780.2 170,780.8 
		170.3,783.2 175,783.2 174.9,781.6 171.6,781.8 	"/>
	<polyline fill="none" stroke="#000000" stroke-width="0.9923" stroke-miterlimit="10" points="137.6,718.8 145.3,729 156.5,721.9 
		159,726.6 143.8,735.8 130.2,717.7 	"/>
	<line fill="none" stroke="#000000" stroke-width="0.9923" stroke-miterlimit="10" x1="157.8" y1="721.6" x2="161.5" y2="719.8"/>
	<line fill="none" stroke="#000000" stroke-width="0.9923" stroke-miterlimit="10" x1="159" y1="723.5" x2="162.6" y2="721.5"/>
	<line fill="none" stroke="#000000" stroke-width="0.9923" stroke-miterlimit="10" x1="159.8" y1="725" x2="163.6" y2="723.3"/>
	<polyline fill="none" stroke="#000000" stroke-width="0.9923" stroke-miterlimit="10" points="163.2,736.5 165.7,738.5 
		162.8,742.3 159.7,739.9 	"/>
	<line fill="none" stroke="#000000" stroke-width="0.9923" stroke-miterlimit="10" x1="166.9" y1="739.9" x2="170.2" y2="742.9"/>
	<line fill="none" stroke="#000000" stroke-width="0.9923" stroke-miterlimit="10" x1="165.6" y1="741.3" x2="168.9" y2="744.3"/>
	<line fill="none" stroke="#000000" stroke-width="0.9923" stroke-miterlimit="10" x1="164.3" y1="743.1" x2="167.6" y2="745.9"/>
	<polyline fill="none" stroke="#000000" stroke-width="0.9923" stroke-miterlimit="10" points="147.8,743.7 165.3,775.2 
		160.1,778.3 146.1,753 	"/>
	<polyline fill="none" stroke="#000000" stroke-width="0.9923" stroke-miterlimit="10" points="130,741.6 124.2,780 130.6,781.4 
		135.9,748.5 	"/>
	<polyline fill="none" stroke="#000000" stroke-width="0.9923" stroke-miterlimit="10" points="168.3,772.9 169.8,776.2 
		161.6,780.8 	"/>
	<polyline fill="none" stroke="#000000" stroke-width="0.9923" stroke-miterlimit="10" points="134.8,781.5 134.5,785.1 
		124.5,783.4 	"/>
	<polyline fill="none" stroke="#000000" stroke-width="0.9923" stroke-miterlimit="10" points="156.2,729.8 155,741.2 164.1,733.9 	
		"/>
	<path fill="none" stroke="#000000" stroke-width="0.9923" stroke-miterlimit="10" d="M156.9,719.9c0,0,0.8-3.5,4.8-4.8"/>
	<polyline fill="none" stroke="#000000" stroke-width="0.9923" stroke-miterlimit="10" points="162.6,716 167.3,720.2 168.1,714.9 	
		"/>
	<line fill="none" stroke="#000000" stroke-width="0.9923" stroke-miterlimit="10" x1="206.2" y1="758.1" x2="209" y2="762.3"/>
	<polyline fill="none" stroke="#000000" stroke-width="0.9923" stroke-miterlimit="10" points="208.9,758.1 211.8,762.3 
		218.1,766.3 211.5,768.2 	"/>
	<circle cx="210.5" cy="764.4" r="0.5"/>
	<polyline fill="none" stroke="#000000" stroke-width="0.9923" stroke-miterlimit="10" points="210,772.4 211.4,780 213.6,779.6 
		214,781.6 211.4,782.3 	"/>
	<polyline fill="none" stroke="#000000" stroke-width="0.9923" stroke-miterlimit="10" points="206,772.3 204.5,780.4 206.7,780.9 
		206.3,783.1 203.7,782.7 	"/>
	<polyline fill="none" stroke="#000000" stroke-width="0.9923" stroke-miterlimit="10" points="193.2,772.8 193.5,780.5 
		195.9,780.4 196.1,782.5 193.2,782.8 	"/>
	<polyline fill="none" stroke="#000000" stroke-width="0.9923" stroke-miterlimit="10" points="189.4,772.1 186.9,780 188.9,780.8 
		188.1,783 185.7,782.2 	"/>
	<polyline fill="none" stroke="#000000" stroke-width="0.9923" stroke-miterlimit="10" points="185.9,764.1 181.2,766.3 186.1,766 	
		"/>
	<line fill="none" stroke="#000000" stroke-width="0.9923" stroke-miterlimit="10" x1="169.1" y1="740.1" x2="203.3" y2="763.8"/>
	<path fill="none" stroke="#000000" stroke-width="0.9923" stroke-miterlimit="10" d="M205.5,764.3c0,0,0.1,3.5,2.8,5.3"/>
	<path fill="none" stroke="#000000" stroke-width="0.9923" stroke-miterlimit="10" d="M157.4,709l-0.8,5.6l-1.8-1.2
		c0,0-3.3,6.6-7,4.2"/>
	<line fill="none" stroke="#000000" stroke-width="0.9923" stroke-miterlimit="10" x1="154.7" y1="706" x2="154.2" y2="700.6"/>
	<line fill="none" stroke="#000000" stroke-width="0.9923" stroke-miterlimit="10" x1="152.1" y1="705.9" x2="151.6" y2="700.5"/>
	<line fill="none" stroke="#000000" stroke-width="0.9923" stroke-miterlimit="10" x1="149.2" y1="706.2" x2="148.7" y2="701"/>
	<ellipse transform="matrix(-0.5379 0.843 -0.843 -0.5379 833.891 960.6723)" cx="153.6" cy="708.9" rx="0.5" ry="0.7"/>
	<path fill="none" stroke="#000000" stroke-width="0.9923" stroke-miterlimit="10" d="M152,716.8c0,0,0.3-0.2-1.9-0.9"/>
</g>
<g>
	<line fill="none" stroke="#000000" stroke-width="0.9923" stroke-miterlimit="10" x1="398.2" y1="708.6" x2="400.8" y2="703.8"/>
	<line fill="none" stroke="#000000" stroke-width="0.9923" stroke-miterlimit="10" x1="396.3" y1="707" x2="398.7" y2="702.3"/>
	<line fill="none" stroke="#000000" stroke-width="0.9923" stroke-miterlimit="10" x1="393.5" y1="705.8" x2="396.1" y2="701"/>
	<ellipse transform="matrix(-0.9169 0.3992 -0.3992 -0.9169 1042.4188 1203.6438)" cx="395.9" cy="710.4" rx="0.5" ry="0.7"/>
	<path fill="none" stroke="#000000" stroke-width="0.9923" stroke-miterlimit="10" d="M398.2,712l-2.9,5.3l-1.5-1.8
		c0,0-0.9,0.8-2,1.5c-0.4,0.2-0.2-3.3-2.6-1.8c-2,1.2,0.6,3.1,0.2,3.2c-1.4,0.5-3.3,0.9-4.2-0.2"/>
	<polyline fill="none" stroke="#000000" stroke-width="0.9923" stroke-miterlimit="10" points="400.5,773.2 405.2,772.6 405.6,771 
		402.7,771.6 	"/>
	<polyline fill="none" stroke="#000000" stroke-width="0.9923" stroke-miterlimit="10" points="372.2,718.7 363.4,730.1 
		364.8,745.3 358.8,745.7 357.3,729 371.6,711.2 	"/>
	<line fill="none" stroke="#000000" stroke-width="0.9923" stroke-miterlimit="10" x1="364" y1="746.9" x2="366" y2="750.5"/>
	<line fill="none" stroke="#000000" stroke-width="0.9923" stroke-miterlimit="10" x1="362.4" y1="748.3" x2="364.3" y2="751.9"/>
	<line fill="none" stroke="#000000" stroke-width="0.9923" stroke-miterlimit="10" x1="360.8" y1="749.2" x2="362.7" y2="752.8"/>
	<polyline fill="none" stroke="#000000" stroke-width="0.9923" stroke-miterlimit="10" points="387.6,729.7 403.4,738.4 
		400.6,742.2 385.8,735.3 	"/>
	<line fill="none" stroke="#000000" stroke-width="0.9923" stroke-miterlimit="10" x1="404.5" y1="739.8" x2="407.9" y2="742.8"/>
	<line fill="none" stroke="#000000" stroke-width="0.9923" stroke-miterlimit="10" x1="403.3" y1="741.2" x2="406.7" y2="744.3"/>
	<line fill="none" stroke="#000000" stroke-width="0.9923" stroke-miterlimit="10" x1="401.9" y1="743" x2="405.4" y2="745.8"/>
	<polyline fill="none" stroke="#000000" stroke-width="0.9923" stroke-miterlimit="10" points="385.5,743.6 403.8,750.6 
		401.5,768.9 394.7,768.9 396.8,754.4 383.7,750.3 	"/>
	<polyline fill="none" stroke="#000000" stroke-width="0.9923" stroke-miterlimit="10" points="365.3,760.1 361.9,780 368.4,781.2 
		371.2,767 	"/>
	<polyline fill="none" stroke="#000000" stroke-width="0.9923" stroke-miterlimit="10" points="405.5,766.1 407,769.4 398.6,774 	
		"/>
	<polyline fill="none" stroke="#000000" stroke-width="0.9923" stroke-miterlimit="10" points="372.6,781.5 372.1,785.1 
		362.2,783.4 	"/>
	<polyline fill="none" stroke="#000000" stroke-width="0.9923" stroke-miterlimit="10" points="358.4,752.1 349.1,758.9 
		360.8,760.9 	"/>
	<path fill="none" stroke="#000000" stroke-width="0.9923" stroke-miterlimit="10" d="M367.2,746.9c0,0,2.3-2.6,6.5-1.8"/>
	<polyline fill="none" stroke="#000000" stroke-width="0.9923" stroke-miterlimit="10" points="374.3,746.1 376.2,752.2 
		379.6,747.6 	"/>
	<line fill="none" stroke="#000000" stroke-width="0.9923" stroke-miterlimit="10" x1="444" y1="758.1" x2="446.8" y2="762.3"/>
	<polyline fill="none" stroke="#000000" stroke-width="0.9923" stroke-miterlimit="10" points="446.7,758.1 449.4,762.3 
		455.9,766.3 449,768.2 	"/>
	<circle cx="448.2" cy="764.4" r="0.5"/>
	<polyline fill="none" stroke="#000000" stroke-width="0.9923" stroke-miterlimit="10" points="447.6,772.3 449,780 451.2,779.6 
		451.7,781.5 449,782.3 	"/>
	<polyline fill="none" stroke="#000000" stroke-width="0.9923" stroke-miterlimit="10" points="443.7,772.2 442.2,780.3 
		444.4,780.8 444,783.1 441.4,782.7 	"/>
	<polyline fill="none" stroke="#000000" stroke-width="0.9923" stroke-miterlimit="10" points="430.9,772.7 431.2,780.4 
		433.7,780.3 433.7,782.4 430.9,782.8 	"/>
	<polyline fill="none" stroke="#000000" stroke-width="0.9923" stroke-miterlimit="10" points="427.1,772.1 424.5,780 426.6,780.7 
		425.9,783 423.4,782.1 	"/>
	<polyline fill="none" stroke="#000000" stroke-width="0.9923" stroke-miterlimit="10" points="423.5,764 419,766.3 423.9,766 	"/>
	<line fill="none" stroke="#000000" stroke-width="0.9923" stroke-miterlimit="10" x1="406.9" y1="740.1" x2="441" y2="763.8"/>
	<path fill="none" stroke="#000000" stroke-width="0.9923" stroke-miterlimit="10" d="M443.2,764.2c0,0,0.1,3.5,2.8,5.3"/>
	<line fill="none" stroke="#000000" stroke-width="0.9923" stroke-miterlimit="10" x1="396.5" y1="710.9" x2="396" y2="708"/>
	<polyline fill="none" stroke="#000000" stroke-width="0.9923" stroke-miterlimit="10" points="402.6,783.5 402,784.7 406.6,784.7 	
		"/>
	<g>
		<path d="M412.3,676.1c0.4-0.2,0.9-0.4,1.5-0.5c0.8-0.2,1.4-0.2,1.8,0c0.4,0.2,0.7,0.6,0.8,1c0.2,0.8-0.2,1.5-0.8,1.7l0,0
			c0.5,0,0.9,0.4,1.2,1c0.4,0.8,0.7,1.4,0.9,1.5l-0.8,0.2c-0.1-0.1-0.4-0.6-0.8-1.4c-0.4-0.8-0.8-1-1.5-0.9l-0.7,0.2l0.7,2.5
			l-0.8,0.2L412.3,676.1z M413.8,678.7l0.8-0.2c0.8-0.2,1.3-0.8,1.1-1.5c-0.2-0.8-0.9-1-1.6-0.8c-0.4,0.1-0.6,0.2-0.8,0.3
			L413.8,678.7z"/>
		<path d="M417.2,674.5l0.8-0.2l0.7,2.6l0,0c0.1-0.3,0.2-0.5,0.4-0.7c0.2-0.2,0.5-0.4,0.8-0.4c0.6-0.1,1.5,0,1.9,1.5l0.7,2.5
			l-0.8,0.2l-0.6-2.4c-0.2-0.7-0.6-1.2-1.3-1c-0.5,0.1-0.8,0.6-0.9,1.1c0,0.1,0,0.2,0,0.4l0.7,2.5l-0.8,0.2L417.2,674.5z"/>
		<path d="M427.3,676.5c0.4,1.5-0.5,2.5-1.5,2.9c-1.2,0.3-2.2-0.3-2.6-1.6c-0.4-1.5,0.4-2.5,1.5-2.9
			C425.8,674.3,427,675,427.3,676.5z M423.8,677.4c0.2,1,1,1.5,1.7,1.3c0.7-0.2,1.1-1.1,0.9-1.9c-0.2-0.7-0.8-1.5-1.6-1.3
			C423.8,675.4,423.5,676.6,423.8,677.4z"/>
		<path d="M432.1,675.1c0.4,1.5-0.5,2.5-1.5,2.9c-1.2,0.3-2.2-0.3-2.6-1.6c-0.4-1.5,0.4-2.5,1.5-2.9
			C430.6,673.1,431.7,673.8,432.1,675.1z M428.7,676c0.2,1,1,1.5,1.7,1.3c0.8-0.2,1.1-1.1,0.9-1.9c-0.2-0.7-0.8-1.5-1.6-1.3
			C428.7,674.2,428.5,675.1,428.7,676z"/>
		<path d="M433.6,676.8c-0.1-0.3,0.1-0.6,0.4-0.7c0.3-0.1,0.6,0.1,0.7,0.4c0.1,0.3-0.1,0.6-0.4,0.7
			C433.8,677.3,433.6,677.1,433.6,676.8z M433.5,675.2l-1.2-4.3l0.9-0.2l1,4.4L433.5,675.2z"/>
		<path d="M437.3,675.1c0.4,0.1,1,0.2,1.5,0c0.8-0.2,1.2-0.7,1-1.4c-0.1-0.6-0.6-0.8-1.5-0.9c-1.1-0.1-1.7-0.5-2-1.3
			c-0.2-1,0.4-1.8,1.5-2.1c0.6-0.2,1.1-0.1,1.4,0l-0.1,0.7c-0.2-0.1-0.7-0.1-1.2,0c-0.8,0.2-1,0.8-0.9,1.2c0.1,0.6,0.6,0.8,1.5,0.9
			c1.1,0.1,1.7,0.5,1.9,1.4c0.2,0.9-0.2,1.8-1.6,2.2c-0.6,0.1-1.3,0.1-1.6,0L437.3,675.1z"/>
		<path d="M445.6,672.8c0.1,0.5,0.2,0.8,0.3,1.2l-0.7,0.2l-0.2-0.7l0,0c-0.1,0.4-0.5,1-1.2,1.2c-0.7,0.2-1.5,0-1.9-1.5l-0.7-2.5
			l0.8-0.2l0.6,2.3c0.2,0.8,0.6,1.3,1.3,1.1c0.5-0.1,0.8-0.6,0.9-1c0-0.1,0-0.3,0-0.4l-0.7-2.6l0.8-0.2L445.6,672.8z"/>
		<path d="M446.3,670.8c-0.1-0.6-0.3-1-0.4-1.4l0.7-0.2l0.2,0.7l0,0c0.2-0.6,0.6-1.1,1.3-1.2c1.1-0.3,2,0.4,2.3,1.7
			c0.4,1.5-0.4,2.5-1.4,2.9c-0.6,0.1-1.2,0-1.5-0.3l0,0l0.6,2.3l-0.8,0.2L446.3,670.8z M447.4,671.8c0,0.1,0.1,0.2,0.1,0.3
			c0.3,0.5,0.9,0.8,1.4,0.6c0.8-0.2,1.2-1,0.9-1.9c-0.2-0.9-0.9-1.5-1.6-1.3c-0.5,0.1-1,0.7-1,1.3c0,0.1,0,0.2,0,0.3L447.4,671.8z"
			/>
		<path d="M451.8,666.5c0.1,0.3-0.1,0.5-0.4,0.6s-0.5-0.1-0.6-0.4c-0.1-0.3,0.1-0.6,0.4-0.6S451.7,666.2,451.8,666.5z M452.2,672.3
			l-1.1-4.4l0.8-0.2l1.1,4.4L452.2,672.3z"/>
		<path d="M456.5,664.4l1.3,5.3c0.1,0.4,0.2,0.8,0.3,1.1l-0.7,0.2l-0.2-0.8l0,0c-0.1,0.6-0.6,1.1-1.3,1.2c-1.1,0.3-2-0.4-2.3-1.6
			c-0.4-1.5,0.3-2.5,1.4-2.9c0.7-0.2,1.2,0,1.5,0.3l0,0l-0.7-2.5L456.5,664.4z M456.7,668.5c0-0.1-0.1-0.2-0.1-0.3
			c-0.2-0.5-0.8-0.8-1.4-0.6c-0.8,0.2-1.1,1.1-0.9,1.9c0.2,0.9,0.8,1.5,1.6,1.3c0.5-0.1,0.9-0.6,0.9-1.2c0-0.1,0-0.2-0.1-0.4V668.5z
			"/>
		<path d="M459.3,668.4c0.3,1.1,1.1,1.3,1.8,1.1c0.6-0.1,0.9-0.3,1.2-0.5l0.3,0.5c-0.2,0.2-0.7,0.5-1.4,0.6
			c-1.3,0.3-2.3-0.3-2.6-1.6c-0.3-1.3,0.2-2.5,1.5-2.9c1.4-0.4,2,0.8,2.2,1.5c0,0.2,0.1,0.3,0.1,0.4L459.3,668.4z M461.6,667.3
			c-0.1-0.5-0.5-1.2-1.4-1c-0.8,0.2-1,1-0.9,1.5L461.6,667.3z"/>
		<path d="M468.9,668c-0.2,0.2-0.6,0.4-1.2,0.6c-1.3,0.3-2.3-0.3-2.8-1.6c-0.3-1.3,0.3-2.5,1.7-2.9c0.5-0.1,0.9-0.1,1.2-0.1v0.7
			c-0.2-0.1-0.5-0.1-1,0c-1,0.3-1.4,1.1-1.1,1.9c0.3,1,1.1,1.5,1.8,1.3c0.5-0.1,0.7-0.3,0.9-0.5L468.9,668z"/>
		<path d="M468.2,661.5l0.8-0.2l0.7,2.6l0,0c0.1-0.3,0.2-0.5,0.4-0.7c0.2-0.2,0.5-0.4,0.8-0.4c0.6-0.1,1.5,0,1.9,1.5l0.7,2.5
			l-0.8,0.2l-0.6-2.4c-0.2-0.7-0.6-1.2-1.3-1c-0.5,0.1-0.8,0.6-0.9,1.1c0,0.1,0,0.2,0,0.4l0.7,2.5l-0.8,0.2L468.2,661.5z"/>
		<path d="M474.4,660.8c0.1,0.3-0.1,0.5-0.4,0.6s-0.5-0.1-0.6-0.4c-0.1-0.3,0.1-0.6,0.4-0.6C474,660.4,474.3,660.5,474.4,660.8z
			 M474.9,666.6l-1.1-4.4l0.8-0.2l1.1,4.4L474.9,666.6z"/>
		<path d="M476.9,663.9c0.3,1.1,1.1,1.3,1.8,1.1c0.6-0.1,0.9-0.3,1.2-0.5l0.3,0.5c-0.2,0.2-0.7,0.5-1.4,0.6
			c-1.3,0.3-2.3-0.3-2.6-1.6c-0.3-1.3,0.2-2.5,1.5-2.9c1.4-0.4,2,0.8,2.2,1.5c0,0.2,0.1,0.3,0.1,0.4L476.9,663.9z M479.1,662.8
			c-0.1-0.5-0.5-1.2-1.4-1c-0.8,0.2-1,1-0.9,1.5L479.1,662.8z"/>
		<path d="M480.7,661.8c-0.1-0.5-0.2-0.8-0.3-1.2l0.7-0.2l0.2,0.7l0,0c0.1-0.5,0.5-1,1.2-1.2c0.6-0.2,1.5,0,1.9,1.5l0.7,2.5
			l-0.8,0.2l-0.6-2.4c-0.2-0.7-0.6-1.2-1.3-1c-0.5,0.1-0.8,0.6-0.9,1.1c0,0.1,0,0.2,0,0.4l0.7,2.5l-0.8,0.2L480.7,661.8z"/>
		<path d="M486.2,663.2c-0.1-0.3,0.1-0.6,0.4-0.7s0.6,0.1,0.7,0.4c0.1,0.3-0.1,0.6-0.4,0.7C486.6,663.7,486.3,663.5,486.2,663.2z
			 M486.1,661.9l-1.2-4.3l0.9-0.2l1,4.4L486.1,661.9z"/>
	</g>
	<path fill="none" stroke="#000000" stroke-width="0.9923" stroke-miterlimit="10" d="M565.3,718.5c0.3,0.1,0.6,0.3,0.9,0.6
		c0.5,0.5,0.8,1.2,0.8,1.9c0,1.5-1.2,2.8-2.8,2.8s-2.8-1.2-2.8-2.8c0-0.7,0.3-1.4,0.7-1.8"/>
	<polyline fill="none" stroke="#000000" stroke-width="0.9923" stroke-miterlimit="10" points="519.2,769.7 519.2,667.2 
		573.5,667.2 573.5,768.7 	"/>
	<polyline fill="none" stroke="#000000" stroke-width="0.9923" stroke-miterlimit="10" points="515.2,780 515.2,772.5 577.4,772.5 
		577.4,780 	"/>
</g>
</svg>
