<?xml version="1.0" encoding="utf-8"?>
<!-- Generator: Adobe Illustrator 18.1.1, SVG Export Plug-In . SVG Version: 6.00 Build 0)  -->
<svg version="1.1" id="Calque_1" xmlns="http://www.w3.org/2000/svg" xmlns:xlink="http://www.w3.org/1999/xlink" x="0px" y="0px"
	 viewBox="-23.9 90.8 615 615" enable-background="new -23.9 90.8 615 615" xml:space="preserve">
<rect x="-23.9" y="90.8" fill="#FFFFFF" stroke="#FFFFFF" stroke-width="11.3686" stroke-miterlimit="10" width="615" height="615"/>
<g>
	<polyline fill="none" stroke="#000000" stroke-width="4.6589" stroke-miterlimit="10" points="137.3,332.4 171.1,378.4 
		222.5,346.4 233.7,367.1 165.7,409.1 103.4,327 	"/>
	<line fill="none" stroke="#000000" stroke-width="4.6589" stroke-miterlimit="10" x1="228.3" y1="345" x2="245" y2="336.9"/>
	<line fill="none" stroke="#000000" stroke-width="4.6589" stroke-miterlimit="10" x1="233.7" y1="353.2" x2="250.4" y2="344.6"/>
	<line fill="none" stroke="#000000" stroke-width="4.6589" stroke-miterlimit="10" x1="237.8" y1="360.4" x2="254.5" y2="352.3"/>
	<path fill="none" stroke="#000000" stroke-width="4.6589" stroke-miterlimit="10" d="M169.3,237.3l10.4,23.4h-10.4
		c0,0,3.6,32.9-16.2,32.9"/>
	<line fill="none" stroke="#000000" stroke-width="4.6589" stroke-miterlimit="10" x1="152.1" y1="231.9" x2="136.8" y2="212.5"/>
	<line fill="none" stroke="#000000" stroke-width="4.6589" stroke-miterlimit="10" x1="141.8" y1="237.3" x2="126.9" y2="218.8"/>
	<line fill="none" stroke="#000000" stroke-width="4.6589" stroke-miterlimit="10" x1="131.4" y1="246.3" x2="117" y2="227.4"/>
	<ellipse cx="155.3" cy="245.4" rx="3.2" ry="2.3"/>
	<path fill="none" stroke="#000000" stroke-width="4.6589" stroke-miterlimit="10" d="M167.9,279.2c0,0-8.6-5-18.9,0.5"/>
	<polyline fill="none" stroke="#000000" stroke-width="4.6589" stroke-miterlimit="10" points="253.1,412.2 264.4,421.2 
		251.3,438.4 237.3,427.6 	"/>
	<line fill="none" stroke="#000000" stroke-width="4.6589" stroke-miterlimit="10" x1="269.4" y1="427.6" x2="284.7" y2="440.6"/>
	<line fill="none" stroke="#000000" stroke-width="4.6589" stroke-miterlimit="10" x1="263.9" y1="434.3" x2="278.8" y2="447.4"/>
	<line fill="none" stroke="#000000" stroke-width="4.6589" stroke-miterlimit="10" x1="257.6" y1="441.5" x2="272.5" y2="454.6"/>
	<polyline fill="none" stroke="#000000" stroke-width="4.6589" stroke-miterlimit="10" points="181.4,447.8 223.8,605.2 
		198.1,613.7 163.4,487.5 	"/>
	<polyline fill="none" stroke="#000000" stroke-width="4.6589" stroke-miterlimit="10" points="102.5,435.2 76.4,608.8 105.2,615.1 
		128.7,466.8 	"/>
	<polyline fill="none" stroke="#000000" stroke-width="4.6589" stroke-miterlimit="10" points="240,598.4 243.2,614.2 201.7,626.4 	
		"/>
	<polyline fill="none" stroke="#000000" stroke-width="4.6589" stroke-miterlimit="10" points="124.6,615.5 122.8,632.2 77.7,624.6 
			"/>
	<polyline fill="none" stroke="#000000" stroke-width="4.6589" stroke-miterlimit="10" points="220.7,382 215.7,433.9 256.7,400.5 	
		"/>
	<path fill="none" stroke="#000000" stroke-width="4.6589" stroke-miterlimit="10" d="M223.8,337.4c0,0,3.6-15.8,21.6-21.6"/>
	<polyline fill="none" stroke="#000000" stroke-width="4.6589" stroke-miterlimit="10" points="250.4,319.4 271.2,338.7 
		274.8,313.9 	"/>
	<line fill="none" stroke="#000000" stroke-width="4.6589" stroke-miterlimit="10" x1="447.4" y1="510.1" x2="460.5" y2="529"/>
	<polyline fill="none" stroke="#000000" stroke-width="4.6589" stroke-miterlimit="10" points="460.1,510.1 472.2,529 501.5,547 
		470.9,556 	"/>
	<circle cx="466.8" cy="538.5" r="2.3"/>
	<polyline fill="none" stroke="#000000" stroke-width="4.6589" stroke-miterlimit="10" points="464.1,574.5 470.4,609.2 480.3,607 
		482.1,616 470.4,619.2 	"/>
	<polyline fill="none" stroke="#000000" stroke-width="4.6589" stroke-miterlimit="10" points="446.1,574.1 439.8,611 449.7,613.3 
		447.4,623.2 436.2,621 	"/>
	<polyline fill="none" stroke="#000000" stroke-width="4.6589" stroke-miterlimit="10" points="388.8,576.3 390.2,611.5 400.5,611 
		401,620.1 388.8,621.4 	"/>
	<polyline fill="none" stroke="#000000" stroke-width="4.6589" stroke-miterlimit="10" points="371.2,573.2 359.5,609.2 369,612.8 
		365.8,622.3 354.6,618.7 	"/>
	<polyline fill="none" stroke="#000000" stroke-width="4.6589" stroke-miterlimit="10" points="355,537.1 334.7,547 356.4,545.7 	
		"/>
	<line fill="none" stroke="#000000" stroke-width="4.6589" stroke-miterlimit="10" x1="279.7" y1="428.9" x2="434.4" y2="535.8"/>
	<path fill="none" stroke="#000000" stroke-width="4.6589" stroke-miterlimit="10" d="M444.3,538c0,0,0.5,15.8,12.6,23.9"/>
</g>
</svg>
